<?xml version="1.0" encoding="UTF-8"?>
<svg width="590px" height="590px" viewBox="0 0 590 590" version="1.1" xmlns="http://www.w3.org/2000/svg" xmlns:xlink="http://www.w3.org/1999/xlink">
    <!-- Generator: Sketch 53 (72520) - https://sketchapp.com -->
    <title>img-mer-lan-get</title>
    <desc>Created with Sketch.</desc>
    <g id="Page-1" stroke="none" stroke-width="1" fill="none" fill-rule="evenodd">
        <g id="SnapScan---Assets" transform="translate(-59.000000, -2668.000000)">
            <g id="img-mer-lan-get" transform="translate(59.000000, 2668.000000)">
                <g id="Group-289" transform="translate(53.000000, 66.000000)">
                    <g id="Oval-6" transform="translate(0.000000, 373.000000)"></g>
                    <ellipse id="Oval-6" fill="#FFFFFF" cx="282.5" cy="430" rx="228.5" ry="45"></ellipse>
                    <g id="Group-240" transform="translate(64.000000, 0.064000)">
                        <path d="M98.7981,108.0928 L69.3821,108.0928" id="Fill-47" fill="#E2EBF4"></path>
                        <path d="M51.2901,132.3946 L44.9061,129.8986" id="Fill-51" fill="#E2EBF4"></path>
                        <path d="M98.0506,108.0928 C97.8846,109.2768 97.3216,110.5268 96.9626,111.4278" id="Fill-53" fill="#E2EBF4"></path>
                        <path d="M96.9194,108.0928 C96.7664,109.2768 96.2484,110.5268 95.9184,111.4278" id="Fill-55" fill="#E2EBF4"></path>
                        <path d="M95.7881,108.0928 C95.6491,109.2768 95.1761,110.5268 94.8741,111.4278" id="Fill-57" fill="#E2EBF4"></path>
                        <path d="M94.657,108.0928 C94.531,109.2768 94.103,110.5268 93.83,111.4278" id="Fill-59" fill="#E2EBF4"></path>
                        <path d="M93.5257,108.0928 C93.4127,109.2768 93.0297,110.5268 92.7857,111.4278" id="Fill-61" fill="#E2EBF4"></path>
                        <path d="M92.3945,108.0928 C92.2945,109.2768 91.9575,110.5268 91.7415,111.4278" id="Fill-63" fill="#E2EBF4"></path>
                        <path d="M91.2632,108.0928 C91.1772,109.2768 90.8842,110.5268 90.6972,111.4278" id="Fill-65" fill="#E2EBF4"></path>
                        <path d="M90.1321,108.0928 C90.0591,109.2768 89.8111,110.5268 89.6531,111.4278" id="Fill-67" fill="#E2EBF4"></path>
                        <path d="M89.0007,108.0928 C88.9407,109.2768 88.7387,110.5268 88.6087,111.4278" id="Fill-69" fill="#E2EBF4"></path>
                        <path d="M87.8696,108.0928 C87.8226,109.2768 87.6656,110.5268 87.5646,111.4278" id="Fill-71" fill="#E2EBF4"></path>
                        <path d="M86.7383,108.0928 C86.7053,109.2768 86.5923,110.5268 86.5203,111.4278" id="Fill-73" fill="#E2EBF4"></path>
                        <path d="M85.6072,108.0928 C85.5872,109.2768 85.5192,110.5268 85.4762,111.4278" id="Fill-75" fill="#E2EBF4"></path>
                        <path d="M84.4758,108.0928 C84.4688,109.2768 84.4468,110.5268 84.4328,111.4278" id="Fill-77" fill="#E2EBF4"></path>
                        <path d="M83.3445,108.0928 C83.3515,109.2768 83.3735,110.5268 83.3885,111.4278" id="Fill-79" fill="#E2EBF4"></path>
                        <path d="M82.2134,108.0928 C82.2334,109.2768 82.3004,110.5268 82.3444,111.4278" id="Fill-81" fill="#E2EBF4"></path>
                        <path d="M81.082,108.0928 C81.115,109.2768 81.228,110.5268 81.3,111.4278" id="Fill-83" fill="#E2EBF4"></path>
                        <path d="M79.9509,108.0928 C79.9969,109.2768 80.1549,110.5268 80.2559,111.4278" id="Fill-85" fill="#E2EBF4"></path>
                        <path d="M78.8196,108.0928 C78.8796,109.2768 79.0816,110.5268 79.2116,111.4278" id="Fill-87" fill="#E2EBF4"></path>
                        <path d="M77.6885,108.0928 C77.7615,109.2768 78.0095,110.5268 78.1675,111.4278" id="Fill-89" fill="#E2EBF4"></path>
                        <path d="M76.5571,108.0928 C76.6431,109.2768 76.9361,110.5268 77.1231,111.4278" id="Fill-91" fill="#E2EBF4"></path>
                        <path d="M75.426,108.0928 C75.526,109.2768 75.863,110.5268 76.079,111.4278" id="Fill-93" fill="#E2EBF4"></path>
                        <path d="M74.2947,108.0928 C74.4077,109.2768 74.7907,110.5268 75.0347,111.4278" id="Fill-95" fill="#E2EBF4"></path>
                        <path d="M73.1636,108.0928 C73.2896,109.2768 73.7176,110.5268 73.9906,111.4278" id="Fill-97" fill="#E2EBF4"></path>
                        <path d="M72.0322,108.0928 C72.1722,109.2768 72.6442,110.5268 72.9462,111.4278" id="Fill-99" fill="#E2EBF4"></path>
                        <path d="M70.9011,108.0928 C71.0541,109.2768 71.5721,110.5268 71.9021,111.4278" id="Fill-101" fill="#E2EBF4"></path>
                        <path d="M69.7698,108.0928 C69.9358,109.2768 70.4988,110.5268 70.8588,111.4278" id="Fill-103" fill="#E2EBF4"></path>
                        <path d="M40.4143,143.6964 C40.1803,144.4884 39.7413,146.2674 39.7413,146.2674" id="Fill-105" fill="#E2EBF4"></path>
                        <path d="M41.8277,144.5753 C41.5247,145.9973 40.9217,148.1293 40.9217,148.1293" id="Fill-107" fill="#E2EBF4"></path>
                        <path d="M43.7048,145.5323 C43.3518,147.1083 42.4518,149.8173 42.4518,149.8173" id="Fill-109" fill="#E2EBF4"></path>
                        <path d="M47.5349,144.1407 C46.9739,145.9677 46.5599,146.9037 46.5599,146.9037 L45.5169,149.0827" id="Fill-111" fill="#E2EBF4"></path>
                        <path d="M318.2646,112.1153 L278.2056,112.1153 C278.2056,113.6013 279.4106,114.8053 280.8966,114.8053 L315.5746,114.8053 C317.0596,114.8053 318.2646,113.6013 318.2646,112.1153" id="Fill-121" fill="#5589C5"></path>
                        <path d="M321.7361,110.5577 L333.2201,80.3677 C333.7481,78.9787 333.0511,77.4247 331.6621,76.8967 L318.2651,112.1157 C319.6531,112.6437 321.2081,111.9467 321.7361,110.5577" id="Fill-122" fill="#5589C5"></path>
                        <polygon id="Fill-123" fill="#5589C5" points="306.1394 121.4522 313.5954 121.4522 313.5714 140.4812 306.1534 133.0642"></polygon>
                        <path d="M306.2705,226.8497 L306.1535,133.0647 L313.5715,140.4817 L313.4635,226.8497 C313.4635,236.0427 321.1565,243.4957 330.6465,243.4957 L289.0885,243.4957 C298.5775,243.4957 306.2705,236.0427 306.2705,226.8497" id="Fill-124" fill="#BED2EA"></path>
                        <polygon id="Fill-125" fill="#BED2EA" points="242.878 123.814 376.856 123.814 376.856 114.806 242.878 114.806"></polygon>
                        <path d="M266.8894,243.4962 L352.8454,243.4962 C356.1354,243.4962 358.8024,246.1632 358.8024,249.4532 L260.9324,249.4532 C260.9324,246.1632 263.5994,243.4962 266.8894,243.4962" id="Fill-126" fill="#BED2EA"></path>
                        <path d="M215.0235,69.8546 C218.2765,67.1196 223.1315,67.5396 225.8665,70.7916 L251.9665,100.6036 L240.8385,111.0816 L214.0865,80.6976 C211.3505,77.4446 211.7705,72.5896 215.0235,69.8546" id="Fill-127" fill="#A9C3E2"></path>
                        <path d="M264.0552,62.1221 C265.6322,60.8311 267.3262,59.4851 269.3492,59.2421 C270.1752,59.1431 270.5602,59.1311 271.3912,59.1311 C273.9082,59.1311 275.3422,57.0191 275.9782,56.3101 C275.9782,56.3101 277.4512,57.2371 276.4982,58.6431 C276.1552,59.1461 275.7812,59.5831 275.3902,59.9701 L275.3982,61.7931 L277.0252,64.3451 L274.8152,68.9931 C274.8152,68.9931 270.1082,71.2061 266.0012,70.8641 L264.9202,73.3181 L257.9422,69.7121 C259.7532,66.2471 262.4782,63.4131 264.0552,62.1221" id="Fill-128" fill="#8AADD7"></path>
                        <path d="M271.6453,62.2452 L271.6453,62.2452 C272.8143,61.8362 274.1873,61.1632 275.3903,59.9742 L275.3983,61.7932 L277.0253,64.3452 L274.8153,68.9932 C274.8153,68.9932 273.7253,69.5052 272.1393,69.9982 C272.1363,69.9942 269.9633,66.0842 267.4843,66.3842 L267.4303,66.3912 C270.1413,65.7642 271.4653,63.7002 271.6453,62.2452" id="Fill-129" fill="#5589C5"></path>
                        <path d="M272.8555,66.8926 C271.4305,67.0476 271.4265,68.3906 272.4905,68.7356 C273.5555,69.0806 275.5745,69.0326 276.8915,68.8646 C278.3235,68.6816 278.1395,66.6726 276.8775,66.6846 C275.6155,66.6966 272.8555,66.8926 272.8555,66.8926" id="Fill-130" fill="#8AADD7"></path>
                        <path d="M272.6511,65.169 C271.1731,65.441 271.2251,66.795 272.3491,67.055 C273.4721,67.315 275.5741,67.101 276.9391,66.823 C278.4231,66.523 278.1471,64.514 276.8331,64.629 C275.5191,64.744 272.6511,65.169 272.6511,65.169" id="Fill-131" fill="#8AADD7"></path>
                        <path d="M272.6562,63.3809 C271.2052,63.7729 271.3672,65.1169 272.5082,65.2849 C273.6492,65.4529 275.7262,65.0679 277.0642,64.6809 C278.5192,64.2599 278.0812,62.2809 276.7812,62.5029 C275.4802,62.7239 272.6562,63.3809 272.6562,63.3809" id="Fill-132" fill="#8AADD7"></path>
                        <path d="M274.929,60.8467 C274.929,64.0817 277.914,65.1887 278.041,65.2347 L279.024,65.7397 L278.316,64.4777 C278.316,64.4777 275.743,63.5417 275.743,60.8467 C275.743,60.1397 276.319,59.5647 277.026,59.5647 C277.733,59.5647 278.308,60.1397 278.308,60.8467 C278.308,61.0727 278.491,61.2537 278.716,61.2537 C278.941,61.2537 279.123,61.0727 279.123,60.8467 C279.123,59.6907 278.182,58.7497 277.026,58.7497 C275.869,58.7497 274.929,59.6907 274.929,60.8467" id="Fill-133" fill="#A9C3E2"></path>
                        <path d="M278.2961,55.8887 L278.2961,63.7987 C278.2961,68.6667 281.2591,69.9977 281.2591,69.9977 L285.7361,69.9917 C285.7361,69.9917 288.6831,68.6607 288.6831,63.7987 L288.6831,55.8887 L278.2961,55.8887 Z" id="Fill-134" fill="#A9C3E2"></path>
                        <path d="M277.0256,59.5645 C276.5766,59.5645 276.1816,59.7965 275.9526,60.1465 L275.9516,60.1485 C275.9516,60.1485 274.8346,60.5995 274.1086,61.0405 C272.7416,61.8685 273.3666,63.0935 274.7776,63.0935 C276.5506,63.0935 277.4266,62.3915 278.0696,61.2105 C278.2456,60.8865 278.2406,60.5085 278.1156,60.1745 C277.8896,59.8095 277.4866,59.5645 277.0256,59.5645" id="Fill-135" fill="#8AADD7"></path>
                        <polygon id="Fill-136" fill="#A9C3E2" points="257.9421 69.712 266.7281 74.206 253.7111 108.743 239.5361 101.94"></polygon>
                        <path d="M253.711,108.7432 L253.711,108.7432 C251.671,114.1222 244.64,115.3992 240.838,111.0812 L240.487,110.6822 C238.356,108.2622 237.975,104.7642 239.535,101.9412 L239.536,101.9392 C242.097,97.3072 248.479,96.6212 251.966,100.6032 L252.316,101.0042 C254.176,103.1282 254.712,106.1032 253.711,108.7432" id="Fill-137" fill="#A9C3E2"></path>
                        <polygon id="Fill-138" fill="#8AADD7" points="222.7405 90.5264 230.9495 76.5994 240.4995 97.9354 255.7585 103.3084 240.1505 110.3004"></polygon>
                        <path d="M276.7336,107.5362 L283.5086,104.8332 C284.2506,104.4232 285.1116,104.2812 285.9466,104.4322 L289.9976,105.1592 C290.6586,105.2782 291.2746,105.5742 291.7796,106.0162 L292.8136,106.9232 C293.6426,107.6482 294.3206,109.1452 294.3206,110.2482 L294.3206,110.7582 L296.7626,113.1072 C296.1876,113.6972 295.2776,113.8012 294.5856,113.3532 C294.3266,113.1862 294.0286,112.9962 293.7026,112.7912 L295.2786,114.3082 C294.7036,114.8982 293.7946,115.0012 293.1026,114.5552 C292.1566,113.9442 289.3976,111.7092 288.4706,110.9532 C288.2796,110.7982 288.0196,110.7642 287.7946,110.8632 L287.7126,110.8982 L291.5586,114.2402 L291.4536,114.3552 C290.9956,114.8582 290.2546,114.9872 289.6526,114.6682 L285.1406,112.1722 C285.1406,112.1722 284.1296,114.8312 281.1306,114.8312 L271.0026,114.8312 L271.0026,108.7852 L276.7336,107.5362 Z" id="Fill-139" fill="#8AADD7"></path>
                        <path d="M296.7622,113.1075 L290.8902,107.1615 C290.6192,106.9005 290.2772,106.7255 289.9072,106.6595 L287.6512,106.2535" id="Stroke-140" stroke="#5589C5" stroke-width="0.373" stroke-linecap="round" stroke-linejoin="round"></path>
                        <path d="M291.5588,114.2403 L287.4578,110.6773 C287.1568,110.4163 286.7818,110.2563 286.3848,110.2193 L285.1408,110.1043" id="Stroke-141" stroke="#5589C5" stroke-width="0.373" stroke-linecap="round" stroke-linejoin="round"></path>
                        <path d="M295.2791,114.3087 L290.6311,109.8347 C290.3691,109.5827 290.0401,109.4117 289.6841,109.3397 L287.4011,108.8847" id="Stroke-142" stroke="#5589C5" stroke-width="0.373" stroke-linecap="round" stroke-linejoin="round"></path>
                        <path d="M242.2791,244.1221 C242.0181,244.0211 241.7461,243.9421 241.4641,243.8871 L235.0451,242.6191 C234.1991,242.4521 233.3731,242.2051 232.5691,241.9041 C231.6541,240.9751 230.8451,239.9431 230.1841,238.8131 C229.8051,238.1661 229.6011,237.4521 229.5511,236.7301 C229.5511,236.7301 229.5511,236.7311 229.5511,236.7311 L229.5421,236.7341 L226.9651,237.2671 C224.8651,237.7001 222.7101,236.8311 221.4981,235.0621 L220.1301,233.0651 C217.5341,238.3361 215.4941,241.5201 215.4941,241.5201 L223.1161,245.3761 L231.0391,249.4531 L240.6571,249.4531 L245.0081,249.4531 C245.4591,247.2741 244.3551,244.9221 242.2791,244.1221" id="Fill-143" fill="#5589C5"></path>
                        <path d="M230.2215,233.9337 L221.7565,229.6277 C221.1705,230.9207 220.6795,231.9507 220.1305,233.0657 L221.4985,235.0627 C222.7105,236.8307 224.8655,237.7007 226.9645,237.2667 L229.5425,236.7347 L229.5515,236.7317 C229.4855,235.7677 229.7025,234.7887 230.2215,233.9337" id="Fill-144" fill="#C7D8EC"></path>
                        <path d="M254.3382,131.6631 L217.5022,227.4631 L230.2212,233.9341 L273.5342,153.3921 C277.9482,145.1851 273.0732,135.0611 263.9052,133.3981 C260.9972,132.8711 257.8202,132.2941 254.3382,131.6631" id="Fill-145" fill="#8AADD7"></path>
                        <polygon id="Fill-146" fill="#5589C5" points="278.3989 142.2989 254.5689 142.2989 246.7039 161.0649 251.3549 161.0649 263.6609 171.7529 278.6429 143.8929"></polygon>
                        <path d="M201.1099,127.9678 C201.1099,137.0428 208.4669,144.3998 217.5419,144.3998 C226.6169,144.3998 233.9729,137.0428 233.9729,127.9678 C233.9729,118.8928 226.6169,111.5358 217.5419,111.5358 C208.4669,111.5358 201.1099,118.8928 201.1099,127.9678" id="Fill-147" fill="#5589C5"></path>
                        <path d="M197.8965,119.4913 L200.2185,81.2713 C200.5405,75.9743 203.3415,71.1383 207.7765,68.2233 C213.7775,64.2793 221.7985,65.5383 226.2895,71.1413 L230.9495,76.5993 C238.4735,85.4103 237.0685,112.2063 236.9465,118.8973 C236.8855,122.2613 236.3515,125.5893 233.9735,127.9683 L201.1095,127.9683 C198.8745,125.7323 197.7045,122.6463 197.8965,119.4913" id="Fill-148" fill="#A9C3E2"></path>
                        <path d="M209.4961,89.836 L237.1271,108.565 C237.1331,113.123 236.8201,119.458 236.7841,121.452 C222.2671,118.61 209.4961,89.836 209.4961,89.836" id="Fill-149" fill="#8AADD7"></path>
                        <path d="M235.127,48.0753 L231.322,42.1703 L231.557,41.6243 C231.898,40.8353 231.963,39.9533 231.741,39.1233 L230.888,35.9253 L224.855,34.0783 L215.855,34.0783 L208.108,48.0503 L211.944,56.8303 L209.096,67.4593 C209.096,67.4593 218.696,74.3973 225.163,74.3973 L225.163,66.3923 C225.217,64.6483 226.606,63.2333 228.35,63.1623 C230.145,63.0903 231.942,62.9273 232.679,62.6953 C233.925,62.3043 234.692,61.0573 234.511,59.7633 L233.233,50.6363 L234.454,50.1353 C235.266,49.8023 235.595,48.8163 235.127,48.0753" id="Fill-150" fill="#8AADD7"></path>
                        <path d="M230.3938,34.0753 C230.1428,33.1353 229.4068,32.4043 228.4658,32.1563 C225.2908,31.3203 217.8098,29.7553 211.9878,31.6863 C200.8038,35.3963 201.2038,52.0763 211.9438,56.8303 C215.6498,57.1753 217.9688,53.4483 217.9688,53.4483 C211.7518,53.4483 209.9018,47.7493 213.1578,46.3863 C216.4148,45.0213 218.7348,49.8953 218.7348,49.8953 L221.5368,49.8953 L217.8828,43.5513 C215.9298,40.1593 218.3778,35.9253 222.2918,35.9253 L230.8878,35.9253 L230.3938,34.0753 Z" id="Fill-151" fill="#5589C5"></path>
                        <path d="M219.9356,60.3682 C219.9356,60.3682 221.5336,63.6332 225.2396,65.7842 C225.5546,64.3302 226.8146,63.2252 228.3506,63.1622 C222.0596,63.1622 219.9356,60.3682 219.9356,60.3682" id="Fill-152" fill="#5589C5"></path>
                        <path d="M201.1099,127.9678 L198.7319,138.7988 C196.3859,149.4808 204.5179,159.5928 215.4539,159.5928 L289.6199,159.5928 L285.3679,146.0078 C283.5889,140.3268 278.8049,136.1018 272.9469,135.0388 L233.9729,127.9678 L201.1099,127.9678 Z" id="Fill-153" fill="#8AADD7"></path>
                        <polygon id="Fill-154" fill="#C7D8EC" points="314.5249 239.1475 313.7269 243.4005 307.9649 249.4535 302.4139 235.8215 312.3189 232.1015"></polygon>
                        <path d="M303.8782,249.4532 L303.8782,239.4162 L307.0082,240.9782 C309.1782,242.0102 311.4372,241.8112 312.7392,240.4752 L314.4252,238.8372 C314.4252,238.8372 314.4252,238.8292 314.4252,238.8282 C314.9702,239.4502 315.6612,239.7242 316.4052,240.1312 C318.3522,241.1922 326.0012,242.6032 326.0012,242.6032 L332.0712,243.9162 C333.9292,244.3172 335.0492,245.8682 334.9022,247.8372 L334.7842,249.4532 L306.9512,249.4532 L306.9442,249.4532 L303.8782,249.4532 Z" id="Fill-155" fill="#5589C5"></path>
                        <path d="M272.948,135.0391 C266.61,133.8891 258.707,132.4551 251.605,131.1671 C273.361,170.2271 302.414,235.8211 302.414,235.8211 L313.484,235.8211 L285.368,146.0081 C283.589,140.3271 278.806,136.1011 272.948,135.0391" id="Fill-156" fill="#8AADD7"></path>
                        <path d="M208.7825,77.1036 C212.0345,74.3686 216.8905,74.7876 219.6255,78.0406 L238.5675,99.6496 L276.7335,107.5366 L276.7385,114.8056 L240.0525,114.8056 C231.3065,114.8056 229.7295,112.9936 226.7665,109.6026 L207.8445,87.9456 C205.1095,84.6926 205.5295,79.8386 208.7825,77.1036" id="Fill-157" fill="#A9C3E2"></path>
                        <polygon id="Fill-158" fill="#BED2EA" points="202.669 167.5674 203.235 164.8164 186.51 167.5674 182.276 239.5054 187.568 239.5054"></polygon>
                        <polygon id="Fill-159" fill="#BED2EA" points="202.669 167.5674 203.235 164.8164 186.51 167.5674 181.69 249.4534 185.48 249.4534"></polygon>
                        <path d="M199.1404,184.377 C200.6004,174.713 209.8954,167.567 219.6694,167.567 L201.7534,164.816 L199.1404,184.377 Z" id="Fill-160" fill="#BED2EA"></path>
                        <path d="M244.6052,184.377 C243.1452,174.713 234.8402,167.567 225.0662,167.567 L242.9812,164.816 L244.6052,184.377 Z" id="Fill-161" fill="#BED2EA"></path>
                        <path d="M186.5095,167.5674 L253.1305,167.5674 L253.1305,165.1244 C253.1305,162.0694 250.6535,159.5924 247.5985,159.5924 L186.5095,159.5924 L186.5095,167.5674 Z" id="Fill-162" fill="#BED2EA"></path>
                        <polygon id="Fill-163" fill="#BED2EA" points="236.9712 167.5674 236.4042 164.8164 253.1302 167.5674 257.9502 249.4534 254.1602 249.4534"></polygon>
                        <path d="M240.4998,184.377 C239.0398,174.713 229.7448,167.567 219.9708,167.567 L237.8868,164.816 L240.4998,184.377 Z" id="Fill-164" fill="#BED2EA"></path>
                        <path d="M179.6094,89.6016 L190.0944,161.0646 L186.6294,159.8016 L176.4674,90.0596 C176.3394,89.1846 176.9524,88.3726 177.8294,88.2566 C178.6904,88.1426 179.4844,88.7426 179.6094,89.6016" id="Fill-165" fill="#BED2EA"></path>
                        <polygon id="Fill-166" fill="#E2EBF4" points="350.4358 94.126 359.6998 86.582 363.4818 94.126"></polygon>
                        <path d="M368.6426,77.3487 L353.9316,112.4077 L356.1826,113.3507 L362.8826,95.1277 C363.2526,94.1197 364.0466,93.3257 365.0536,92.9527 L366.0756,92.5767 L366.8296,90.7807 C368.5866,86.5917 369.5666,82.1197 369.7236,77.5827 C369.7316,77.3507 369.5936,77.1377 369.3796,77.0477 C369.0926,76.9277 368.7626,77.0627 368.6426,77.3487" id="Fill-167" fill="#8AADD7"></path>
                        <path d="M354.9844,85.709 L352.6544,77.004 L352.1704,77.093 L353.7494,85.085 C353.7784,85.23 353.6824,85.372 353.5364,85.399 L353.5344,85.399 C353.3924,85.426 353.2554,85.334 353.2254,85.193 L351.5134,77.214 L351.0294,77.304 L352.4424,85.332 C352.4684,85.477 352.3724,85.613 352.2284,85.641 C352.0844,85.667 351.9464,85.572 351.9184,85.429 L350.3724,77.425 L349.8884,77.515 L351.1384,85.578 C351.1604,85.721 351.0654,85.855 350.9234,85.881 L350.9214,85.882 C350.7754,85.908 350.6354,85.812 350.6094,85.665 L349.2324,77.636 L348.7474,77.725 L349.6794,86.688 C349.7654,87.519 350.2944,88.236 351.0604,88.565 L351.1004,88.583 C351.8244,88.894 352.3394,89.554 352.4654,90.332 L356.3414,114.408 L357.4994,114.194 L358.6584,113.98 L353.6834,90.107 C353.5224,89.336 353.7674,88.535 354.3334,87.986 L354.3644,87.956 C354.9624,87.375 355.2004,86.516 354.9844,85.709" id="Fill-168" fill="#BED2EA"></path>
                        <polygon id="Fill-169" fill="#263943" points="354.5933 84.2471 353.2703 87.4571 354.5933 88.5331"></polygon>
                        <path d="M355.4238,76.9297 L351.1358,114.7057 L353.5598,114.9817 L354.8808,95.6107 C354.9538,94.5387 355.4928,93.5537 356.3558,92.9137 L357.2308,92.2657 L357.4498,90.3307 C357.9618,85.8177 357.6498,81.2497 356.5278,76.8517 C356.4698,76.6257 356.2778,76.4597 356.0468,76.4337 C355.7378,76.3987 355.4588,76.6197 355.4238,76.9297" id="Fill-170" fill="#BED2EA"></path>
                        <polygon id="Fill-171" fill="#BED2EA" points="349.229 114.981 364.688 114.981 364.688 94.126 349.229 94.126"></polygon>
                        <path d="M349.2295,103.3087 L364.6885,103.3087" id="Stroke-172" stroke="#8AADD7" stroke-width="0.8"></path>
                        <path d="M349.2295,100.8194 L364.6885,100.8194" id="Stroke-173" stroke="#8AADD7" stroke-width="0.8"></path>
                        <path d="M349.2295,105.7979 L364.6885,105.7979" id="Stroke-174" stroke="#8AADD7" stroke-width="0.8"></path>
                        <path d="M349.2295,108.2872 L364.6885,108.2872" id="Stroke-175" stroke="#8AADD7" stroke-width="0.8"></path>
                        <polygon id="Fill-176" fill="#FFFFFF" points="361.4604 94.126 347.3644 82.647 349.2294 94.126"></polygon>
                        <polygon id="Fill-177" fill="#FFE783" points="175.8526 297.9913 174.7816 292.7913 206.4036 297.9913 214.4086 434.0003 204.4026 434.0003"></polygon>
                        <polygon id="Fill-178" fill="#FFE783" points="175.8526 297.9913 174.7816 292.7913 206.4036 297.9913 214.4086 434.0003 204.4026 434.0003"></polygon>
                        <path d="M182.5237,329.7715 C179.7637,311.5005 162.1907,297.9915 143.7117,297.9915 L177.5827,292.7915 L182.5237,329.7715 Z" id="Fill-179" fill="#FFE783"></path>
                        <path d="M96.5664,329.7715 C99.3264,311.5005 115.0294,297.9915 133.5074,297.9915 L99.6364,292.7915 L96.5664,329.7715 Z" id="Fill-180" fill="#FFE783"></path>
                        <polygon id="Fill-181" fill="#FFE783" points="80.448 297.991 206.404 297.991 206.404 282.914 80.448 282.914"></polygon>
                        <polygon id="Fill-182" fill="#FFE783" points="110.9995 297.9913 112.0705 292.7913 80.4485 297.9913 72.4435 434.0003 82.4495 434.0003"></polygon>
                        <path d="M104.3284,329.7715 C107.0884,311.5005 124.6614,297.9915 143.1404,297.9915 L109.2694,292.7915 L104.3284,329.7715 Z" id="Fill-183" fill="#FFE783"></path>
                        <path d="M83.6502,282.9141 L69.9542,179.9371 C68.4052,168.2931 76.2602,157.4781 87.8132,155.3511 L111.5502,150.9771 C132.8112,147.0601 154.6092,147.0741 175.8652,151.0191 L199.0722,155.3281 C210.6112,157.4701 218.4492,168.2761 216.9012,179.9091 L203.2022,282.9141" id="Stroke-184" stroke="#FFE783" stroke-width="6.004"></path>
                        <path d="M144.2239,148.0528 L144.2239,148.0498 C144.1389,148.0498 144.0529,148.0508 143.9679,148.0518 C143.8819,148.0508 143.7969,148.0498 143.7119,148.0498 L143.7119,148.0528 C133.1189,148.0908 122.5289,149.0778 112.0709,151.0198 L124.8179,282.9138 L143.7119,282.9138 L144.2239,282.9138 L163.1179,282.9138 L175.8649,151.0198 C165.4059,149.0778 154.8169,148.0908 144.2239,148.0528" id="Fill-185" fill="#FFE783"></path>
                        <polygon id="Fill-186" fill="#263943" points="113.4309 282.8487 166.0969 282.8487 190.0889 262.7067 190.0889 217.5477 88.0659 217.5477 88.0659 262.7067"></polygon>
                        <path d="M199.2156,431.5626 L199.2156,430.5976 C199.2156,426.9276 196.9146,423.6506 193.4626,422.4036 L183.0416,418.6396 C178.5726,417.0256 175.9876,412.3546 176.9946,407.7106 L178.5106,400.7196 L156.5176,400.7196 L154.2716,431.5626 L199.2156,431.5626 Z" id="Fill-187" fill="#6B422C"></path>
                        <path d="M125.2566,431.5626 L123.0106,400.7196 L101.0176,400.7196 L102.5336,407.7106 C103.5396,412.3546 100.9556,417.0256 96.4866,418.6396 L86.0656,422.4036 C82.6126,423.6506 80.3126,426.9276 80.3126,430.5976 L80.3126,431.5626 L125.2566,431.5626 Z" id="Fill-188" fill="#6B422C"></path>
                        <path d="M123.2571,403.8926 L92.8901,403.8926 L63.8091,246.2016 C61.0601,231.2946 72.5051,217.5476 87.6621,217.5476 C100.4041,217.5476 110.9741,227.4076 111.8591,240.1186 L123.2571,403.8926 Z" id="Fill-189" fill="#2A5C95"></path>
                        <path d="M156.271,403.8926 L186.638,403.8926 L215.719,246.2016 C218.467,231.2946 207.023,217.5476 191.865,217.5476 C179.123,217.5476 168.554,227.4076 167.669,240.1186 L156.271,403.8926 Z" id="Fill-190" fill="#2A5C95"></path>
                        <path d="M169.4304,31.9649 L162.1224,31.9649 L162.1224,47.1209 L166.5264,47.1209 C168.1304,47.1209 169.4304,45.8209 169.4304,44.2169 L169.4304,31.9649 Z" id="Fill-191" fill="#61B546"></path>
                        <path d="M169.4304,31.9649 L162.1224,31.9649 L162.1224,47.1209 L166.5264,47.1209 C168.1304,47.1209 169.4304,45.8209 169.4304,44.2169 L169.4304,31.9649 Z" id="Stroke-192" stroke="#61B546" stroke-width="0.8"></path>
                        <path d="M224.6826,182.2989 L215.2996,115.4229 C214.4546,109.4019 210.8106,104.1339 205.4736,101.2199 L168.3286,80.9449 L161.8046,87.4699 C158.7146,90.5599 154.5236,92.2959 150.1536,92.2959 L129.3746,92.2959 C125.0046,92.2959 120.8136,90.5599 117.7236,87.4699 L111.1986,80.9449 L74.0546,101.2199 C68.7176,104.1339 65.0726,109.4019 64.2276,115.4229 L54.8456,182.2989 C53.3716,192.8049 61.5296,202.1879 72.1386,202.1879 L89.4396,202.1879 L190.0886,202.1879 L207.3896,202.1879 C217.9986,202.1879 226.1566,192.8049 224.6826,182.2989" id="Fill-193" fill="#5589C5"></path>
                        <polygon id="Fill-194" fill="#263943" points="89.8692 148.3174 97.3602 123.2674 97.3602 158.5504"></polygon>
                        <polygon id="Fill-195" fill="#263943" points="189.6587 148.3174 182.1677 123.2674 182.1677 158.5504"></polygon>
                        <path d="M95.1907,181.1944 C86.9557,174.0064 81.2557,171.7314 75.6427,171.5014 L104.0957,171.5014 L104.0957,190.0334 L95.1907,181.1944 Z" id="Fill-196" fill="#263943"></path>
                        <path d="M64.1331,172.8555 C74.9171,170.8415 81.6031,169.3325 95.1911,181.1945" id="Stroke-197" stroke="#2A5C95" stroke-width="0.4" stroke-linecap="round" stroke-linejoin="round"></path>
                        <path d="M184.3374,181.1944 C192.5724,174.0064 198.2724,171.7314 203.8854,171.5014 L175.4324,171.5014 L175.4324,190.0334 L184.3374,181.1944 Z" id="Fill-198" fill="#263943"></path>
                        <path d="M215.395,172.8555 C204.611,170.8415 197.925,169.3325 184.337,181.1945" id="Stroke-199" stroke="#2A5C95" stroke-width="0.4" stroke-linecap="round" stroke-linejoin="round"></path>
                        <path d="M117.7234,87.4698 C120.8134,90.5598 125.0044,92.2958 129.3744,92.2958 L150.1534,92.2958 C154.5234,92.2958 158.7144,90.5598 161.8044,87.4698 L168.3284,80.9458 L165.0684,79.1648 C160.1314,76.4708 157.0594,71.2938 157.0594,65.6688 L157.0594,59.6488 L122.4684,59.6488 L122.4684,65.6688 C122.4684,71.2938 119.3974,76.4708 114.4594,79.1648 L111.1994,80.9458 L117.7234,87.4698 Z" id="Fill-200" fill="#AD6E4C"></path>
                        <path d="M139.7642,70.7676 L142.5512,59.6486 L122.4682,59.6486 L122.4682,65.6686 C122.4682,70.4796 120.2162,74.9566 116.4772,77.8396 C123.7052,73.3136 126.4532,70.7676 139.7642,70.7676" id="Fill-201" fill="#263943"></path>
                        <path d="M117.4055,31.9649 L110.0975,31.9649 L110.0975,44.2169 C110.0975,45.8209 111.3975,47.1209 113.0015,47.1209 L117.4055,47.1209 L117.4055,31.9649 Z" id="Fill-202" fill="#61B546"></path>
                        <path d="M117.4055,31.9649 L110.0975,31.9649 L110.0975,44.2169 C110.0975,45.8209 111.3975,47.1209 113.0015,47.1209 L117.4055,47.1209 L117.4055,31.9649 Z" id="Stroke-203" stroke="#61B546" stroke-width="0.8"></path>
                        <path d="M169.0305,31.9649 L169.0305,30.0029 C169.0305,13.8389 155.9275,0.7359 139.7635,0.7359 C123.6005,0.7359 110.4975,13.8389 110.4975,30.0029 L110.4975,31.9649" id="Stroke-204" stroke="#61B546" stroke-width="1.601"></path>
                        <path d="M126.2483,11.6719 L117.4053,14.5479 L117.4053,42.5579 C117.4053,46.5089 118.2543,50.4129 119.8943,54.0069 L122.4683,59.6489 C125.5593,66.4219 132.3193,70.7679 139.7643,70.7679 C147.2093,70.7679 153.9683,66.4219 157.0593,59.6489 L159.6333,54.0069 C161.2743,50.4129 162.1223,46.5089 162.1223,42.5579 L162.1223,14.5479 L126.2483,11.6719 Z" id="Fill-205" fill="#AD6E4C"></path>
                        <path d="M154.7344,10.8301 C159.6494,7.9841 165.6714,12.0921 164.8164,17.7061 L162.5604,32.5211 L162.1224,35.3961 C162.1224,35.3961 157.3054,27.2011 157.3054,14.5481" id="Fill-206" fill="#6B422C"></path>
                        <path d="M157.315,14.9503 C157.334,17.2793 157.512,19.4533 157.794,21.4493 C159.148,20.3553 161.228,18.4163 163.711,15.2303 L157.315,14.9503 Z" id="Fill-207" fill="#263943"></path>
                        <path d="M136.385,39.8536 C136.385,35.3276 132.716,31.6586 128.189,31.6586 C123.663,31.6586 119.993,35.3276 119.993,39.8536 C119.993,44.3796 123.663,48.0496 128.189,48.0496 C132.716,48.0496 136.385,44.3796 136.385,39.8536 Z" id="Stroke-208" stroke="#E2E2E2" stroke-width="0.8"></path>
                        <path d="M159.5344,39.8536 C159.5344,35.3276 155.8654,31.6586 151.3384,31.6586 C146.8124,31.6586 143.1434,35.3276 143.1434,39.8536 C143.1434,44.3796 146.8124,48.0496 151.3384,48.0496 C155.8654,48.0496 159.5344,44.3796 159.5344,39.8536 Z" id="Stroke-209" stroke="#E2E2E2" stroke-width="0.8"></path>
                        <path d="M143.2256,38.7393 C141.3136,36.8283 138.2146,36.8283 136.3026,38.7393" id="Stroke-210" stroke="#E2E2E2" stroke-width="0.8"></path>
                        <path d="M138.3377,43.7178 L137.0267,48.3848 C136.3847,51.9488 142.6397,50.9258 142.6397,50.9258" id="Stroke-211" stroke="#6B422C" stroke-width="0.4" stroke-linecap="round" stroke-linejoin="round"></path>
                        <path d="M149.3323,41.6475 C149.3323,42.4725 149.8283,43.1415 150.4393,43.1415 C151.0513,43.1415 151.5463,42.4725 151.5463,41.6475 C151.5463,40.8225 151.0513,40.1535 150.4393,40.1535 C149.8283,40.1535 149.3323,40.8225 149.3323,41.6475" id="Fill-212" fill="#263943"></path>
                        <path d="M149.3323,41.6475 C149.3323,42.4725 149.8283,43.1415 150.4393,43.1415 C151.0513,43.1415 151.5463,42.4725 151.5463,41.6475 C151.5463,40.8225 151.0513,40.1535 150.4393,40.1535 C149.8283,40.1535 149.3323,40.8225 149.3323,41.6475 Z" id="Stroke-213" stroke="#263943" stroke-width="0.2" stroke-linecap="round" stroke-linejoin="round"></path>
                        <path d="M130.1958,41.6475 C130.1958,42.4725 129.6998,43.1415 129.0888,43.1415 C128.4768,43.1415 127.9818,42.4725 127.9818,41.6475 C127.9818,40.8225 128.4768,40.1535 129.0888,40.1535 C129.6998,40.1535 130.1958,40.8225 130.1958,41.6475" id="Fill-214" fill="#263943"></path>
                        <path d="M130.1958,41.6475 C130.1958,42.4725 129.6998,43.1415 129.0888,43.1415 C128.4768,43.1415 127.9818,42.4725 127.9818,41.6475 C127.9818,40.8225 128.4768,40.1535 129.0888,40.1535 C129.6998,40.1535 130.1958,40.8225 130.1958,41.6475 Z" id="Stroke-215" stroke="#263943" stroke-width="0.2" stroke-linecap="round" stroke-linejoin="round"></path>
                        <path d="M139.8345,61.168 C143.9105,60.853 147.7705,58.459 149.8655,54.949" id="Stroke-216" stroke="#6B422C" stroke-width="0.4" stroke-linecap="round" stroke-linejoin="round"></path>
                        <path d="M121.6909,21.7842 C122.1869,18.4382 125.6239,16.4132 128.7819,17.6262 L121.1819,12.8122 L119.9929,19.3032 L121.6909,21.7842 Z" id="Fill-217" fill="#263943"></path>
                        <path d="M158.5945,4.0518 L158.5545,4.0518 C156.3675,4.0518 154.3155,5.1088 153.0465,6.8898 L152.3215,6.4888 C142.7455,1.1798 130.8765,2.4018 122.5835,9.5508 C118.5585,7.2208 113.6265,10.5838 114.3275,15.1818 L117.4055,35.3968 C117.4055,35.3968 122.2225,27.2008 122.2225,14.5478 C122.2225,14.5478 132.6405,20.8608 145.0845,20.8608 C152.4845,20.8608 158.2535,18.6268 161.7145,16.8178 C163.9525,15.6468 165.3575,13.3398 165.3575,10.8148 C165.3575,7.0788 162.3295,4.0518 158.5945,4.0518" id="Fill-218" fill="#6B422C"></path>
                        <path d="M145.7139,30.0704 C148.5789,28.5254 152.0299,28.1004 155.1839,28.9064" id="Stroke-219" stroke="#6B422C" stroke-width="0.4" stroke-linecap="round" stroke-linejoin="round"></path>
                        <path d="M134.4788,30.0704 C131.6138,28.5254 128.1628,28.1004 125.0088,28.9064" id="Stroke-220" stroke="#6B422C" stroke-width="0.4" stroke-linecap="round" stroke-linejoin="round"></path>
                        <path d="M175.4321,84.8223 L167.2951,92.9603 C162.7161,97.5393 156.6281,100.0603 150.1531,100.0603 L129.3751,100.0603 C122.9001,100.0603 116.8121,97.5393 112.2331,92.9603 L104.0961,84.8223" id="Stroke-221" stroke="#2A5C95" stroke-width="0.4"></path>
                        <path d="M150.677,91.1505 L128.87,91.1505 L139.817,114.9815 L150.698,91.1495 C150.691,91.1495 150.684,91.1505 150.677,91.1505" id="Fill-222" fill="#AD6E4C"></path>
                        <polygon id="Fill-223" fill="#2A5C95" points="143.9856 92.296 136.7026 108.248 139.7956 114.982 150.1536 92.296"></polygon>
                        <path d="M217.0344,423.7364 L178.7874,423.7364 C162.4404,423.7354 149.1874,410.8964 149.1874,395.0574 L149.3724,213.4774 L136.5944,213.4774 L136.7954,395.0574 C136.7954,410.8964 123.5434,423.7354 107.1944,423.7364 L68.9484,423.7364 C63.2804,423.7364 58.6844,428.3324 58.6844,434.0004 L227.2974,434.0004 C227.2974,428.3324 222.7024,423.7364 217.0344,423.7364" id="Fill-224" fill="#E2EBF4"></path>
                        <polygon id="Fill-225" fill="#263943" points="135.9299 217.5479 150.7889 217.5479 150.7889 247.6769 135.9299 232.8179"></polygon>
                        <polygon id="Fill-226" fill="#E48360" points="0 217.545 285.983 217.545 285.983 202.026 0 202.026"></polygon>
                        <path d="M184.3174,202.1876 L95.2104,202.1876 C92.0234,202.1876 89.4394,199.6036 89.4394,196.4166 L89.4394,138.1556 C89.4394,134.8156 92.1464,132.1086 95.4854,132.1086 L184.0424,132.1086 C187.3814,132.1086 190.0884,134.8156 190.0884,138.1556 L190.0884,196.4166 C190.0884,199.6036 187.5054,202.1876 184.3174,202.1876" id="Fill-227" fill="#E2EBF4"></path>
                        <path d="M190.0889,196.1534 L89.4399,196.1534" id="Stroke-228" stroke="#8AADD7" stroke-width="0.4"></path>
                        <path d="M146.6878,167.1485 C146.6878,163.3245 143.5878,160.2245 139.7638,160.2245 C135.9398,160.2245 132.8398,163.3245 132.8398,167.1485 C132.8398,170.9715 135.9398,174.0725 139.7638,174.0725 C143.5878,174.0725 146.6878,170.9715 146.6878,167.1485" id="Fill-229" fill="#FFFFFF"></path>
                        <path d="M232.5012,197.545 C232.7652,197.545 233.0302,197.444 233.2312,197.242 C234.9252,195.551 237.0062,193.743 240.2912,193.743 C243.2252,193.743 245.6102,191.358 245.6102,188.425 C245.6102,185.491 243.2252,183.107 240.2912,183.107 C237.3592,183.107 234.9732,185.491 234.9732,188.425 C234.9732,188.995 235.4342,189.458 236.0052,189.458 C236.5762,189.458 237.0392,188.995 237.0392,188.425 C237.0392,186.632 238.4982,185.173 240.2912,185.173 C242.0852,185.173 243.5442,186.632 243.5442,188.425 C243.5442,190.219 242.0852,191.679 240.2912,191.679 C236.4102,191.679 233.9032,193.65 231.7712,195.782 C231.3682,196.186 231.3682,196.84 231.7712,197.242 C231.9712,197.444 232.2372,197.545 232.5012,197.545" id="Fill-230" fill="#894E42"></path>
                        <path d="M231.4822,196.376 C231.5112,196.159 231.6042,195.949 231.7712,195.782 C233.0542,194.499 234.4762,193.277 236.2492,192.505 L236.2492,194.813 C235.4622,195.259 234.7692,195.805 234.1372,196.376 L231.4822,196.376 Z" id="Fill-231" fill="#263943"></path>
                        <path d="M237.0689,181.419 L237.0689,187.557 C237.0689,194.14 232.8969,199.742 227.0529,201.88 C226.9569,201.731 226.8019,201.616 226.5839,201.594 C224.1699,201.341 221.9389,201.323 219.5899,201.406 C214.3559,198.99 210.7219,193.7 210.7219,187.557 L210.7219,181.419 L237.0689,181.419 Z" id="Fill-232" fill="#894E42"></path>
                        <path d="M233.3394,197.545 C232.7684,197.981 229.8954,200.508 229.2874,200.851 C229.2734,200.858 229.2594,200.865 229.2454,200.873 C229.0674,200.974 228.8854,201.069 228.7034,201.162 C228.6684,201.18 228.6344,201.196 228.5994,201.214 C228.5884,201.219 228.5764,201.225 228.5654,201.231 C228.4124,201.306 228.2594,201.379 228.1044,201.449 C228.0714,201.464 228.0374,201.479 228.0044,201.494 C227.9764,201.507 227.9484,201.519 227.9204,201.531 C227.7764,201.595 227.6304,201.654 227.4844,201.714 C227.4224,201.738 227.3614,201.763 227.2994,201.787 C227.2314,201.669 227.1114,201.578 226.9264,201.548 C225.3944,201.296 223.8294,201.423 222.2824,201.325 C221.1794,201.256 220.2914,201.051 219.3774,201.265 C216.7334,199.921 214.4014,197.746 212.8704,195.365 C212.8704,195.365 233.3424,197.542 233.3394,197.545" id="Fill-233" fill="#263943"></path>
                        <path d="M237.5713,202.1876 L211.6003,202.1876 C208.1933,202.1876 205.2263,200.3356 203.6333,197.5896 L245.5373,197.5896 C243.9453,200.3356 240.9783,202.1876 237.5713,202.1876" id="Fill-234" fill="#894E42"></path>
                        <path d="M222.7261,182.6378 L227.2411,181.4188 L213.3881,181.4188 C214.6231,181.8078 215.8581,182.1968 217.0931,182.5848 C217.9001,182.8388 218.7181,183.0958 219.5631,183.1418 C220.6341,183.1998 221.6911,182.9168 222.7261,182.6378" id="Fill-235" fill="#E48360"></path>
                        <path d="M38.7988,181.2051 L37.2398,183.1411 L18.9698,169.9411 C17.7028,169.0261 17.3738,167.3381 18.2498,166.2501 C19.1248,165.1631 20.8448,165.1251 22.0088,166.1671 L38.7988,181.2051 Z" id="Fill-236" fill="#BED2EA"></path>
                        <polygon id="Fill-237" fill="#263943" points="36.7498 179.3702 29.4468 177.5102 32.0208 179.3702"></polygon>
                        <path d="M33.0593,202.0694 L63.9963,202.0694 C71.2403,197.1244 75.9973,188.8034 75.9973,179.3704 L21.0583,179.3704 C21.0583,188.8034 25.8153,197.1244 33.0593,202.0694" id="Fill-238" fill="#FFD47E"></path>
                        <path d="M55.4395,198.1221 C55.4395,198.1221 25.7725,194.7541 25.7725,194.7541 C26.5815,195.9471 27.4805,197.0721 28.4615,198.1221 L55.4395,198.1221 Z" id="Fill-239" fill="#263943"></path>
                    </g>
                    <g id="Group-247" transform="translate(85.000000, 179.064000)">
                        <g id="Group-243">
                            <path d="M0.058,0.37 C0.058,9.804 4.816,18.124 12.06,23.069 L12.06,23.069 L42.996,23.069 C50.24,18.124 54.997,9.804 54.997,0.37 L54.997,0.37" id="Clip-242"></path>
                            <polyline id="Stroke-241" stroke="#FFC17A" stroke-width="0.8" points="0.2195 5.3995 4.7695 7.1905 9.3205 5.3995 13.8715 7.1905 18.4215 5.3995 22.9725 7.1905 27.5235 5.3995 32.0735 7.1905 36.6245 5.3995 41.1755 7.1905 45.7255 5.3995 50.2765 7.1905 54.8275 5.3995"></polyline>
                        </g>
                        <g id="Group-246">
                            <path d="M0.058,0.37 C0.058,9.804 4.816,18.124 12.06,23.069 L12.06,23.069 L42.996,23.069 C50.24,18.124 54.997,9.804 54.997,0.37 L54.997,0.37" id="Clip-245"></path>
                            <polyline id="Stroke-244" stroke="#FFC17A" stroke-width="0.8" points="0.2195 10.5069 4.7695 12.2979 9.3205 10.5069 13.8715 12.2979 18.4215 10.5069 22.9725 12.2979 27.5235 10.5069 32.0735 12.2979 36.6245 10.5069 41.1755 12.2979 45.7255 10.5069 50.2765 12.2979 54.8275 10.5069"></polyline>
                        </g>
                    </g>
                    <g id="Group-288" transform="translate(80.000000, 145.064000)">
                        <path d="M55.3855,57.1876 L7.6705,57.1876 C4.4185,57.1876 1.5865,55.4196 0.0655,52.7986 L62.9895,52.7986 C61.4695,55.4196 58.6375,57.1876 55.3855,57.1876" id="Fill-248" fill="#FFC17A"></path>
                        <path d="M352.1772,184.7061 C347.5552,166.9161 334.5182,152.9261 316.0392,152.9261 L349.9102,147.7251 L352.1772,184.7061 Z" id="Fill-250" fill="#263943"></path>
                        <path d="M224.6309,152.9258 L360.2189,152.9258 L360.2189,137.8488 L230.8689,137.8488 C227.4239,137.8488 224.6309,140.6418 224.6309,144.0868 L224.6309,152.9258 Z" id="Fill-252" fill="#FFE783"></path>
                        <polygon id="Fill-254" fill="#263943" points="280.0215 288.9346 275.5095 152.9256 308.1945 152.9256 288.5785 288.9996"></polygon>
                        <polygon id="Fill-256" fill="#FFE783" points="238.8291 152.9258 224.6311 152.9258 205.7431 288.9348 214.2811 288.9348"></polygon>
                        <g id="Group-260" transform="translate(344.000000, 152.000000)">
                            <polygon id="Clip-259" points="0.8203 0.9261 40.8433 0.9261 40.8433 137 0.8203 137"></polygon>
                            <polygon id="Fill-258" fill="#263943" points="32.3223 137.0001 0.8203 0.9261 15.0183 0.9261 40.8433 136.9351"></polygon>
                        </g>
                        <path d="M333.0571,150.5333 L347.9211,152.9263 C346.1771,152.9263 335.5431,152.9823 334.1021,198.8753 L333.0571,150.5333 Z" id="Fill-261" fill="#FFE783"></path>
                        <path d="M366.8203,198.878 C356.7553,152.982 351.1643,152.926 347.9213,152.926 L359.1683,150.533 L366.8203,198.878 Z" id="Fill-263" fill="#FFE783"></path>
                        <polygon id="Fill-265" fill="#FFE783" points="383.9568 288.9346 358.1318 152.9256 360.2188 152.9256 386.0448 288.9346"></polygon>
                        <path d="M264.9775,153.2706 C266.6395,153.0436 268.3325,152.9256 270.0495,152.9256 L270.0515,152.9256 C271.9135,152.9256 273.7445,153.0696 275.5395,153.3346 L276.2315,174.1706 C275.5395,153.3346 265.2155,153.2656 264.9775,153.2706" id="Fill-267" fill="#263943"></path>
                        <path d="M364.2378,4.4434 L364.7178,5.1764 L339.0928,137.8484 L309.8758,137.8484 L317.6788,5.8024 C333.1278,3.9904 348.7068,3.5324 364.2378,4.4434" id="Fill-269" fill="#FFE783"></path>
                        <g id="Group-273" transform="translate(255.000000, 0.000000)">
                            <polygon id="Clip-272" points="0.0844 0.984108281 137 0.984108281 137 137.8487 0.0844 137.8487"></polygon>
                            <path d="M98.9744,137.8487 L130.3794,28.1357 C131.6864,23.5687 130.8924,18.7037 128.2004,14.7897 C125.5074,10.8757 121.2494,8.3937 116.5164,7.9807 C95.5104,6.1487 74.2944,6.8537 53.4574,10.0777 C44.3944,11.4807 36.2154,15.6887 29.8054,22.2467 C23.3954,28.8057 19.3754,37.0777 18.1814,46.1717 L6.1394,137.8487 L0.0844,137.8487 L12.2294,45.3897 C13.5944,34.9987 18.1874,25.5457 25.5124,18.0507 C32.8374,10.5557 42.1824,5.7477 52.5394,4.1447 C73.8524,0.8477 95.5524,0.1257 117.0384,1.9997 C123.5634,2.5697 129.4344,5.9917 133.1464,11.3877 C136.8584,16.7847 137.9534,23.4917 136.1504,29.7877 L105.2194,137.8487 L98.9744,137.8487 Z" id="Fill-271" fill="#FFE783"></path>
                        </g>
                        <polygon id="Fill-274" fill="#263943" points="264.9775 137.8487 260.4705 142.9357 261.1385 137.8487"></polygon>
                        <polygon id="Fill-276" fill="#263943" points="360.219 137.8487 354.776 135.0487 353.974 137.8487"></polygon>
                        <polygon id="Fill-278" fill="#FFE783" points="302.1914 152.9258 303.9214 147.7248 335.5444 152.9258 331.2754 288.9348 322.7364 288.9348"></polygon>
                        <path d="M320.7107,182.3272 L325.9587,266.9492" id="Stroke-280" stroke="#FFC17A" stroke-width="0.8"></path>
                        <path d="M306.9919,184.7061 C304.2319,166.4351 288.5289,152.9261 270.0499,152.9261 L303.9219,147.7251 L306.9919,184.7061 Z" id="Fill-282" fill="#FFE783"></path>
                        <path d="M234.8291,148.7842 L270.0501,152.9262 C251.9761,152.9262 236.4941,165.8642 233.2841,183.6502 L234.8291,148.7842 Z" id="Fill-284" fill="#FFE783"></path>
                        <path d="M325.6152,128.2422 L340.0432,14.0842" id="Stroke-286" stroke="#FFC17A" stroke-width="0.8"></path>
                    </g>
                </g>
            </g>
        </g>
    </g>
</svg>