<svg xmlns="http://www.w3.org/2000/svg" xmlns:xlink="http://www.w3.org/1999/xlink" viewBox="0 0 572.3 461.47"><defs><style>.cls-1{fill:#fff;}.cls-2{stroke:#f0f5fa;fill:url(#linear-gradient);}.cls-11,.cls-13,.cls-14,.cls-15,.cls-16,.cls-2,.cls-22,.cls-3{stroke-width:0.95px;}.cls-3{fill:#3e4b58;stroke:#8e9caa;}.cls-4{fill:url(#linear-gradient-2);}.cls-5{fill:#6a7177;}.cls-6{fill:#454d55;}.cls-11,.cls-13,.cls-14,.cls-15,.cls-16,.cls-22,.cls-39,.cls-40,.cls-7,.cls-8{fill:none;}.cls-22,.cls-7,.cls-8{stroke:#d0deef;}.cls-7,.cls-8{stroke-width:1.42px;}.cls-15,.cls-39,.cls-40,.cls-8{stroke-linecap:round;}.cls-9{fill:#d0deef;}.cls-10{fill:#3b77bc;}.cls-11,.cls-14,.cls-15{stroke:#3b77bc;}.cls-12{fill:#b3b3b3;}.cls-13{stroke:#b3b3b3;}.cls-14,.cls-15,.cls-39,.cls-40{stroke-linejoin:round;}.cls-16{stroke:#6a7177;}.cls-17{mask:url(#mask);}.cls-18{mask:url(#mask-2);}.cls-19{mask:url(#mask-3);}.cls-20{mask:url(#mask-16);}.cls-21{mask:url(#mask-17);}.cls-23{mask:url(#mask-18);}.cls-24{fill:#193a5a;fill-opacity:0.5;}.cls-25{mask:url(#mask-19);}.cls-26{fill:#263943;}.cls-27{mask:url(#mask-54);}.cls-28{fill:#dce5f2;}.cls-29{fill:#b2754b;}.cls-30{fill:#6b432c;}.cls-31{mask:url(#mask-55);}.cls-32{fill:#3269a6;}.cls-33{fill:#569e3e;}.cls-34{fill:#2d571d;}.cls-35{fill:#a76a3b;}.cls-36{fill:#c68c63;}.cls-37{fill:#665b50;}.cls-38{mask:url(#mask-56);}.cls-39{stroke:#2d571d;}.cls-39,.cls-40{stroke-width:0.6px;}.cls-40{stroke:#665b50;}</style><linearGradient id="linear-gradient" x1="212.03" y1="330.56" x2="212.26" y2="330.5" gradientTransform="matrix(571.35, 0, 0, -401.75, -121178.06, 132946.37)" gradientUnits="userSpaceOnUse"><stop offset="0" stop-color="#f0f5fa"/><stop offset="1" stop-color="#fff"/></linearGradient><linearGradient id="linear-gradient-2" x1="203.74" y1="337.5" x2="205.94" y2="335.48" gradientTransform="matrix(24.38, 0, 0, -24.39, -4425.23, 8427.73)" gradientUnits="userSpaceOnUse"><stop offset="0" stop-color="#f0f5fa"/><stop offset="1" stop-color="#d0deef"/></linearGradient><mask id="mask" x="482.91" y="97.43" width="4.62" height="6.22" maskUnits="userSpaceOnUse"><g id="mask-6"><polygon id="path-5" class="cls-1" points="482.91 97.43 487.53 97.43 487.53 103.65 482.91 103.65 482.91 97.43"/></g></mask><mask id="mask-2" x="488.73" y="97.43" width="4.82" height="6.22" maskUnits="userSpaceOnUse"><g id="mask-8"><polygon id="path-7" class="cls-1" points="488.73 97.43 493.55 97.43 493.55 103.65 488.73 103.65 488.73 97.43"/></g></mask><mask id="mask-3" x="377.69" y="97.43" width="116.23" height="224" maskUnits="userSpaceOnUse"><g id="mask-10"><polygon id="path-9" class="cls-1" points="377.69 321.42 493.92 321.42 493.92 97.43 377.69 97.43 377.69 321.42"/></g></mask><mask id="mask-16" x="487.2" y="313.42" width="6.2" height="8" maskUnits="userSpaceOnUse"><g id="mask-12-2" data-name="mask-12"><polygon id="path-11" class="cls-1" points="487.19 313.42 493.4 313.42 493.4 321.42 487.19 321.42 487.19 313.42"/></g></mask><mask id="mask-17" x="377.69" y="130.38" width="116.23" height="1.43" maskUnits="userSpaceOnUse"><g id="mask-14-2" data-name="mask-14"><polygon id="path-13" class="cls-1" points="377.69 130.86 493.92 130.86 493.92 131.81 377.69 131.81 377.69 130.86"/></g></mask><mask id="mask-18" x="377.69" y="174.11" width="116.23" height="1.43" maskUnits="userSpaceOnUse"><g id="mask-16-2" data-name="mask-16"><polygon id="path-15" class="cls-1" points="377.69 174.58 493.92 174.58 493.92 175.53 377.69 175.53 377.69 174.58"/></g></mask><mask id="mask-19" x="227.82" y="129.89" width="119.7" height="119.7" maskUnits="userSpaceOnUse"><g id="mask-18-2" data-name="mask-18"><polygon id="path-17" class="cls-1" points="227.82 129.89 347.52 129.89 347.52 249.59 227.82 249.59 227.82 129.89"/></g></mask><mask id="mask-54" x="407.15" y="454.82" width="105.47" height="6.65" maskUnits="userSpaceOnUse"><g id="mask-20-2" data-name="mask-20"><polygon id="path-19" class="cls-1" points="407.15 454.82 512.61 454.82 512.61 461.47 407.15 461.47 407.15 454.82"/></g></mask><mask id="mask-55" x="470" y="437.53" width="35.87" height="20.14" maskUnits="userSpaceOnUse"><g id="mask-22-2" data-name="mask-22"><polygon id="path-21" class="cls-1" points="470 437.53 505.87 437.53 505.87 457.67 470 457.67 470 437.53"/></g></mask><mask id="mask-56" x="440.07" y="141.15" width="28.55" height="13.24" maskUnits="userSpaceOnUse"><g id="mask-24-2" data-name="mask-24"><polygon id="path-23" class="cls-1" points="440.07 141.15 468.62 141.15 468.62 154.39 440.07 154.39 440.07 141.15"/></g></mask></defs><title>Asset 1</title><g id="Layer_2" data-name="Layer 2"><g id="Layer_1-2" data-name="Layer 1"><g id="Page-1"><g id="SnapScan-Assets"><g id="img-point-of-sale"><g id="Group"><g id="Group-181"><g id="Fill-1"><path id="path-2" d="M546.9,402.22H25.4A24.93,24.93,0,0,1,.47,377.29V25.41A24.94,24.94,0,0,1,25.4.47H546.9a24.94,24.94,0,0,1,24.93,24.94V377.29a24.93,24.93,0,0,1-24.93,24.93"/><path id="path-2-2" data-name="path-2" class="cls-2" d="M546.9,402.22H25.4A24.93,24.93,0,0,1,.47,377.29V25.41A24.94,24.94,0,0,1,25.4.47H546.9a24.94,24.94,0,0,1,24.93,24.94V377.29a24.93,24.93,0,0,1-24.93,24.93"/></g><path id="Fill-3" class="cls-3" d="M26.24,204.2a2.62,2.62,0,1,1,2.62-2.62A2.62,2.62,0,0,1,26.24,204.2Z"/><path id="Fill-5" class="cls-4" d="M560.56,201.58a12.2,12.2,0,1,1-12.19-12.2,12.19,12.19,0,0,1,12.19,12.2"/><g id="Group-50"><polygon id="Fill-7" class="cls-1" points="49.93 378.52 522.37 378.52 522.37 24.17 49.93 24.17 49.93 378.52"/><path id="Fill-9" class="cls-5" d="M51.83,378.52H520.47a1.9,1.9,0,0,0,1.9-1.9V347.34H49.93v29.28A1.9,1.9,0,0,0,51.83,378.52Z"/><polygon id="Fill-10" class="cls-6" points="166.83 378.52 255.39 378.52 255.39 347.33 166.83 347.33 166.83 378.52"/><polygon id="Stroke-11" class="cls-7" points="362.69 333.06 509.9 333.06 509.9 41.75 362.69 41.75 362.69 333.06"/><polygon id="Stroke-12" class="cls-8" points="362.69 71.43 509.9 71.43 509.9 41.75 362.69 41.75 362.69 71.43"/><polygon id="Stroke-13" class="cls-8" points="68.87 92.43 119.86 92.43 119.86 41.75 68.87 41.75 68.87 92.43"/><polygon id="Stroke-14" class="cls-8" points="68.87 92.43 119.86 92.43 119.86 81.36 68.87 81.36 68.87 92.43"/><polygon id="Fill-15" class="cls-9" points="72.55 88.75 92.38 88.75 92.38 85.04 72.55 85.04 72.55 88.75"/><polygon id="Stroke-16" class="cls-8" points="68.87 150.66 119.86 150.66 119.86 99.98 68.87 99.98 68.87 150.66"/><polygon id="Stroke-17" class="cls-8" points="68.87 150.66 119.86 150.66 119.86 139.59 68.87 139.59 68.87 150.66"/><polygon id="Fill-18" class="cls-9" points="72.55 146.97 92.38 146.97 92.38 143.27 72.55 143.27 72.55 146.97"/><polygon id="Stroke-19" class="cls-8" points="68.87 208.88 119.86 208.88 119.86 158.2 68.87 158.2 68.87 208.88"/><polygon id="Stroke-20" class="cls-8" points="68.87 208.88 119.86 208.88 119.86 197.81 68.87 197.81 68.87 208.88"/><polygon id="Fill-21" class="cls-9" points="72.55 205.2 92.38 205.2 92.38 201.5 72.55 201.5 72.55 205.2"/><polygon id="Stroke-22" class="cls-8" points="68.87 267.11 119.86 267.11 119.86 216.43 68.87 216.43 68.87 267.11"/><polygon id="Stroke-23" class="cls-8" points="68.87 267.11 119.86 267.11 119.86 256.04 68.87 256.04 68.87 267.11"/><polygon id="Fill-24" class="cls-9" points="72.55 263.43 92.38 263.43 92.38 259.72 72.55 259.72 72.55 263.43"/><polygon id="Stroke-25" class="cls-8" points="244.45 333.06 295.44 333.06 295.44 282.38 244.45 282.38 244.45 333.06"/><polygon id="Stroke-26" class="cls-8" points="244.45 333.06 295.44 333.06 295.44 321.99 244.45 321.99 244.45 333.06"/><polygon id="Fill-27" class="cls-9" points="248.13 329.37 291.76 329.37 291.76 325.67 248.13 325.67 248.13 329.37"/><polygon id="Stroke-28" class="cls-8" points="302.97 333.06 353.97 333.06 353.97 282.38 302.97 282.38 302.97 333.06"/><polygon id="Stroke-29" class="cls-8" points="302.97 333.06 353.97 333.06 353.97 321.99 302.97 321.99 302.97 333.06"/><polygon id="Fill-30" class="cls-9" points="306.65 329.37 350.29 329.37 350.29 325.67 306.65 325.67 306.65 329.37"/><polygon id="Fill-32" class="cls-10" points="362.69 333.06 509.9 333.06 509.9 302.91 362.69 302.91 362.69 333.06"/><path id="Stroke-45" class="cls-11" d="M491.57,56.52a4.7,4.7,0,1,1-4.69-4.7A4.7,4.7,0,0,1,491.57,56.52Z"/><polyline id="Stroke-46" class="cls-11" points="484.99 56.52 486.25 57.78 488.76 55.26"/><polygon id="Fill-47" class="cls-12" points="58.28 360.8 69.4 360.8 69.4 359.28 58.28 359.28 58.28 360.8"/><polygon id="Fill-48" class="cls-12" points="58.28 364.24 69.4 364.24 69.4 362.72 58.28 362.72 58.28 364.24"/><polygon id="Fill-49" class="cls-12" points="58.28 367.68 69.4 367.68 69.4 366.16 58.28 366.16 58.28 367.68"/><polygon id="Stroke-50" class="cls-13" points="470.56 369.57 483 369.57 483 357.34 470.56 357.34 470.56 369.57"/><polygon id="Stroke-51" class="cls-13" points="382.13 369.57 393.48 369.57 393.48 357.34 382.13 357.34 382.13 369.57"/><path id="Stroke-52" class="cls-13" d="M470.59,361.42H483"/><path id="Stroke-53" class="cls-13" d="M470.59,365.49H483"/><path id="Stroke-54" class="cls-13" d="M474.74,369.59V357.32"/><path id="Stroke-55" class="cls-13" d="M478.81,369.59V357.32"/><path id="Stroke-56" class="cls-13" d="M384.32,359.64h2.37"/><path id="Stroke-57" class="cls-13" d="M387.84,359.64h3.63"/><path id="Stroke-58" class="cls-13" d="M384.32,362.3h2.37"/><path id="Stroke-59" class="cls-13" d="M387.84,362.3h3.63"/></g><g id="Group-26"><polygon id="Stroke-1" class="cls-14" points="103.14 117.12 85.94 117.12 87.97 130.34 101.1 130.34 103.14 117.12"/><polyline id="Stroke-2" class="cls-14" points="87.34 117.12 87.34 112.51 90.22 112.51"/><polyline id="Stroke-3" class="cls-14" points="90.22 117.12 90.22 108.65 93.1 108.65 93.1 117.12"/><path id="Stroke-4" class="cls-14" d="M93.1,110.55H96"/><polyline id="Stroke-5" class="cls-14" points="95.98 117.12 95.98 108.65 98.86 108.65 98.86 117.12"/><polyline id="Stroke-6" class="cls-14" points="98.86 112.51 101.74 112.51 101.74 117.12"/><polyline id="Stroke-7" class="cls-14" points="87.33 174.34 89.15 190.36 99.93 190.36 101.75 174.34"/><polygon id="Stroke-8" class="cls-14" points="86.48 174.35 102.6 174.35 102.6 171.29 86.48 171.29 86.48 174.35"/><path id="Stroke-9" class="cls-14" d="M88.49,184.56h12.1"/><path id="Stroke-10" class="cls-14" d="M101.25,178.77H87.83"/><polyline id="Stroke-11-2" data-name="Stroke-11" class="cls-14" points="88.06 171.29 88.06 169.19 101.01 169.19 101.01 171.29"/><polyline id="Stroke-12-2" data-name="Stroke-12" class="cls-14" points="93.5 169.19 93.5 165.02 95.58 165.02 95.58 169.19"/><g id="Group-25"><path id="Stroke-13-2" data-name="Stroke-13" class="cls-14" d="M87.88,67H83.61v1.93a1.58,1.58,0,0,0,1.58,1.58h18.7a1.57,1.57,0,0,0,1.57-1.58V67H93.76"/><path id="Stroke-15" class="cls-14" d="M105.46,63.06H83.61a9.83,9.83,0,0,1,9.83-9.83h2.2A9.82,9.82,0,0,1,105.46,63.06Z"/><path id="Stroke-17-2" data-name="Stroke-17" class="cls-15" d="M105.46,65H83.61"/><polyline id="Stroke-19-2" data-name="Stroke-19" class="cls-15" points="97.1 65.04 90.12 68.87 86.1 65.12"/><polygon id="Fill-21-2" data-name="Fill-21" class="cls-10" points="93.27 240.28 91.14 237.31 89.01 240.28 87.41 240.28 90.26 236.38 87.58 232.68 89.18 232.68 91.14 235.47 93.09 232.68 94.69 232.68 92.03 236.37 94.87 240.28 93.27 240.28"/><path id="Fill-23" class="cls-10" d="M95.48,240.28v-1.05c3-2.23,4.11-3.22,4.11-4.32a1.23,1.23,0,0,0-1.38-1.16,2.66,2.66,0,0,0-2,.91l-.78-.88a3.68,3.68,0,0,1,2.81-1.21c1.47,0,2.75.83,2.75,2.34s-1.28,2.66-3.32,4.2H101v1.17Z"/></g></g><g id="Group-39"><polygon id="Stroke-1-2" data-name="Stroke-1" class="cls-16" points="458.05 113.13 458.05 116.59 461.87 120.41 465.32 116.95 461.5 113.13 458.05 113.13"/><g id="Group-38"><g id="Group-24"><path id="Fill-2" class="cls-6" d="M480.59,99.41a1,1,0,0,0-1-1h-1.45v1.91h1.45a1,1,0,0,0,1-1Zm-.09,4.13-1.34-2.25h-1.05v2.25h-1.06v-6h2.65a1.83,1.83,0,0,1,2,1.89,1.69,1.69,0,0,1-1.43,1.77l1.48,2.36Z"/><g id="Group-6"><g class="cls-17"><path id="Fill-4" class="cls-6" d="M486.36,99.17c0-.51-.49-.8-1.13-.8s-1.15.29-1.15.8.77.78,1.15.85,1.13-.28,1.13-.85m.1,2.69c0-.62-.87-.9-1.23-1s-1.25.33-1.25,1,.56.85,1.25.85,1.23-.32,1.23-.85m-3.55.14a1.78,1.78,0,0,1,1.36-1.57A1.53,1.53,0,0,1,483,99c0-1.11,1.14-1.58,2.22-1.58s2.21.47,2.21,1.58a1.54,1.54,0,0,1-1.27,1.42,1.78,1.78,0,0,1,1.36,1.57c0,1.07-1.08,1.65-2.3,1.65s-2.32-.57-2.32-1.65"/></g></g><g id="Group-9"><g class="cls-18"><path id="Fill-7-2" data-name="Fill-7" class="cls-6" d="M492.47,100.53c0-1.14-.35-2.16-1.33-2.16s-1.34,1-1.34,2.16.35,2.18,1.34,2.18,1.33-1,1.33-2.18m-3.74,0c0-1.51.72-3.1,2.41-3.1s2.41,1.59,2.41,3.1-.72,3.12-2.41,3.12-2.41-1.6-2.41-3.12"/></g></g><g class="cls-19"><polygon id="Fill-10-2" data-name="Fill-10" class="cls-6" points="473.52 117.92 475.69 117.92 475.69 117.11 473.52 117.11 473.52 117.92"/></g><g class="cls-19"><path id="Fill-12" class="cls-6" d="M480.59,115.56a1,1,0,0,0-1-1h-1.45v1.91h1.45a1,1,0,0,0,1-1Zm-.1,4.14-1.33-2.25h-1.05v2.25h-1.06v-6h2.65a1.83,1.83,0,0,1,2,1.89,1.7,1.7,0,0,1-1.43,1.78l1.47,2.36Z"/></g><g class="cls-19"><path id="Fill-13" class="cls-6" d="M483,119.7v-.83c2.33-1.77,3.25-2.56,3.25-3.42a1,1,0,0,0-1.1-.93,2.07,2.07,0,0,0-1.62.73l-.62-.7a2.9,2.9,0,0,1,2.22-1,2,2,0,0,1,2.19,1.87c0,1.11-1,2.1-2.64,3.32h2.68v.93Z"/></g><g class="cls-19"><path id="Fill-14" class="cls-6" d="M492.47,116.69c0-1.14-.35-2.17-1.33-2.17s-1.34,1-1.34,2.17.35,2.18,1.34,2.18,1.33-1,1.33-2.18m-3.74,0c0-1.52.72-3.11,2.41-3.11s2.41,1.59,2.41,3.11-.72,3.12-2.41,3.12-2.41-1.6-2.41-3.12"/></g><g class="cls-19"><path id="Fill-15-2" data-name="Fill-15" class="cls-6" d="M480.91,144.08a1,1,0,0,0-1-1h-1.44V145h1.44a1,1,0,0,0,1-1Zm-.09,4.14L479.48,146h-1v2.25h-1.06v-6H480a1.83,1.83,0,0,1,2,1.89,1.69,1.69,0,0,1-1.42,1.77l1.47,2.37Z"/></g><g class="cls-19"><path id="Fill-16" class="cls-6" d="M486,143.14l-1.83,2.78H486Zm0,5.08v-1.37h-2.87V146l2.48-3.81H487v3.73h.8v.93H487v1.37Z"/></g><g class="cls-19"><path id="Fill-17" class="cls-6" d="M492.37,143.84c0-.5-.49-.8-1.13-.8s-1.15.3-1.15.8.78.79,1.15.85,1.13-.28,1.13-.85m.1,2.7c0-.63-.86-.91-1.23-.95s-1.25.32-1.25.95.56.85,1.25.85,1.23-.33,1.23-.85m-3.55.13a1.76,1.76,0,0,1,1.36-1.56,1.55,1.55,0,0,1-1.26-1.43c0-1.11,1.14-1.58,2.22-1.58s2.21.47,2.21,1.58a1.56,1.56,0,0,1-1.27,1.43,1.74,1.74,0,0,1,1.36,1.56c0,1.08-1.08,1.66-2.3,1.66s-2.32-.57-2.32-1.66"/></g><g class="cls-19"><path id="Fill-18-2" data-name="Fill-18" class="cls-6" d="M482.72,160.24a1,1,0,0,0-1-1h-1.45v1.92h1.45a1,1,0,0,0,1-1Zm-.09,4.14-1.34-2.25h-1.05v2.25h-1.06v-6h2.65a1.83,1.83,0,0,1,2,1.89,1.69,1.69,0,0,1-1.43,1.77l1.48,2.37Z"/></g><g class="cls-19"><polygon id="Fill-19" class="cls-6" points="486.4 164.38 486.4 159.72 485.41 160.74 484.8 160.1 486.53 158.35 487.45 158.35 487.45 164.38 486.4 164.38"/></g><g class="cls-19"><path id="Fill-20" class="cls-6" d="M489,164.38v-.84c2.34-1.77,3.25-2.55,3.25-3.42a1,1,0,0,0-1.09-.92,2.1,2.1,0,0,0-1.63.72l-.61-.7a2.88,2.88,0,0,1,2.22-1,2,2,0,0,1,2.18,1.86c0,1.11-1,2.1-2.63,3.33h2.67v.93Z"/></g><g class="cls-19"><path id="Fill-21-3" data-name="Fill-21" class="cls-6" d="M480.53,188.75a1,1,0,0,0-1-.95h-1.44v1.91h1.44a1,1,0,0,0,1-1Zm-.09,4.14-1.34-2.25h-1v2.25H477v-6h2.65a1.83,1.83,0,0,1,2,1.89,1.68,1.68,0,0,1-1.43,1.77l1.47,2.37Z"/></g><g class="cls-19"><path id="Fill-22" class="cls-6" d="M486.49,191c0-.74-.58-1.07-1.24-1.07a1.67,1.67,0,0,0-1.32.71,1.38,1.38,0,0,0,1.35,1.41,1.12,1.12,0,0,0,1.21-1.05m-3.64-1.12c0-1.74.91-3.11,2.65-3.11a2.46,2.46,0,0,1,1.74.66l-.5.81a1.53,1.53,0,0,0-1.24-.54c-1,0-1.59.93-1.59,2a.86.86,0,0,0,0,.17,2.1,2.1,0,0,1,1.62-.84,1.87,1.87,0,0,1,2,1.95,2.05,2.05,0,0,1-2.22,2c-1.77,0-2.48-1.44-2.48-3.11"/></g><g class="cls-19"><path id="Fill-23-2" data-name="Fill-23" class="cls-6" d="M492.47,189.88c0-1.14-.35-2.17-1.33-2.17s-1.34,1-1.34,2.17.35,2.18,1.34,2.18,1.33-1,1.33-2.18m-3.74,0c0-1.52.72-3.11,2.41-3.11s2.41,1.59,2.41,3.11-.72,3.12-2.41,3.12-2.41-1.6-2.41-3.12"/></g></g><path id="Fill-25" class="cls-1" d="M476.65,316a1.22,1.22,0,0,0-1.32-1.23h-1.86v2.46h1.86a1.22,1.22,0,0,0,1.32-1.23Zm-.11,5.32-1.72-2.89h-1.35v2.89h-1.36v-7.75h3.4a2.36,2.36,0,0,1,2.54,2.43,2.17,2.17,0,0,1-1.84,2.28l1.89,3Z"/><path id="Fill-27-2" data-name="Fill-27" class="cls-1" d="M484.32,318.87c0-1-.75-1.39-1.6-1.39a2.13,2.13,0,0,0-1.69.92,1.77,1.77,0,0,0,1.73,1.82,1.44,1.44,0,0,0,1.56-1.35m-4.68-1.44c0-2.25,1.17-4,3.41-4a3.11,3.11,0,0,1,2.23.86l-.64,1a2,2,0,0,0-1.59-.68c-1.29,0-2,1.19-2,2.55a1.55,1.55,0,0,0,0,.22,2.65,2.65,0,0,1,2.08-1.08,2.41,2.41,0,0,1,2.59,2.5,2.65,2.65,0,0,1-2.86,2.6c-2.28,0-3.19-1.84-3.19-4"/><g id="Group-31"><g class="cls-20"><path id="Fill-29" class="cls-1" d="M492,317.42c0-1.48-.45-2.79-1.71-2.79s-1.72,1.31-1.72,2.79.45,2.8,1.72,2.8,1.71-1.33,1.71-2.8m-4.81,0c0-2,.92-4,3.1-4s3.1,2,3.1,4-.93,4-3.1,4-3.1-2.05-3.1-4"/></g></g><g id="Group-34"><g class="cls-21"><path id="Stroke-32" class="cls-22" d="M377.69,130.86H493.92"/></g></g><g id="Group-37"><g class="cls-23"><path id="Stroke-35" class="cls-22" d="M377.69,174.58H493.92"/></g></g></g></g><g id="Group-53"><path id="Fill-60" class="cls-24" d="M51.83,378.52H520.47a1.9,1.9,0,0,0,1.9-1.9V26.07a1.91,1.91,0,0,0-1.9-1.9H51.83a1.91,1.91,0,0,0-1.9,1.9V376.62A1.9,1.9,0,0,0,51.83,378.52Z"/><path id="Fill-61" class="cls-1" d="M123.63,65.79V354.66a9.51,9.51,0,0,0,9.5,9.51h306a9.51,9.51,0,0,0,9.5-9.51V65.79Z"/><path id="Fill-62" class="cls-10" d="M448.67,66.8h-325V48a9.51,9.51,0,0,1,9.5-9.51h306a9.51,9.51,0,0,1,9.5,9.51Z"/><g id="Group-15"><path id="Fill-63" class="cls-10" d="M372,296.06H200.32a14.13,14.13,0,0,0,0,28.26H372a14.13,14.13,0,0,0,0-28.26"/><g id="Group-13"><path id="Fill-124" class="cls-1" d="M231.72,308.37a1.2,1.2,0,0,0-1.3-1.21h-1.83v2.41h1.83a1.19,1.19,0,0,0,1.3-1.2Zm-4.46,5.22V306h3.34a2.39,2.39,0,1,1,0,4.77h-2v2.84Z"/><path id="Fill-125" class="cls-1" d="M234.16,313.59v-5.51h1.19v.81a2.37,2.37,0,0,1,1.79-.93v1.18a2,2,0,0,0-.37,0,1.91,1.91,0,0,0-1.42.73v3.75Z"/><path id="Fill-126" class="cls-1" d="M238.11,313.59h1.2v-5.51h-1.2Zm-.14-6.92a.74.74,0,1,1,.74.74.74.74,0,0,1-.74-.74Z"/><path id="Fill-127" class="cls-1" d="M244.58,313.59v-3.45c0-.85-.44-1.14-1.11-1.14a1.79,1.79,0,0,0-1.41.75v3.84h-1.2v-5.51h1.2v.75a2.61,2.61,0,0,1,1.94-.89,1.58,1.58,0,0,1,1.77,1.77v3.88Z"/><path id="Fill-128" class="cls-1" d="M247.57,312.31v-3.18h-.92v-1.05h.92v-1.5h1.19v1.5h1.12v1.05h-1.12V312c0,.38.18.65.53.65a.78.78,0,0,0,.53-.19l.29.9a1.57,1.57,0,0,1-1.13.35,1.27,1.27,0,0,1-1.41-1.41"/><path id="Fill-129" class="cls-1" d="M258.38,308.37a1.19,1.19,0,0,0-1.29-1.21h-1.83v2.41h1.83a1.19,1.19,0,0,0,1.29-1.2Zm-4.45,5.22V306h3.34a2.39,2.39,0,1,1,0,4.77h-2v2.84Z"/><path id="Fill-130" class="cls-1" d="M260.83,313.59v-5.51H262v.81a2.37,2.37,0,0,1,1.79-.93v1.18a2,2,0,0,0-.37,0,1.91,1.91,0,0,0-1.42.73v3.75Z"/><path id="Fill-131" class="cls-1" d="M268.86,310.83a1.61,1.61,0,1,0-1.59,1.83,1.66,1.66,0,0,0,1.59-1.83m-4.42,0a2.83,2.83,0,1,1,2.83,2.89,2.76,2.76,0,0,1-2.83-2.89"/><polygon id="Fill-132" class="cls-1" points="270.88 311.34 273.62 311.34 273.62 310.31 270.88 310.31 270.88 311.34"/><polygon id="Fill-133" class="cls-1" points="274.77 313.59 274.77 305.98 279.98 305.98 279.98 307.16 276.1 307.16 276.1 309.13 279.9 309.13 279.9 310.3 276.1 310.3 276.1 313.59 274.77 313.59"/><path id="Fill-134" class="cls-1" d="M285.23,310.83a1.61,1.61,0,1,0-1.6,1.83,1.66,1.66,0,0,0,1.6-1.83m-4.43,0a2.84,2.84,0,1,1,2.83,2.89,2.76,2.76,0,0,1-2.83-2.89"/><path id="Fill-135" class="cls-1" d="M287.68,313.59v-5.51h1.2v.81a2.35,2.35,0,0,1,1.78-.93v1.18a1.8,1.8,0,0,0-1.78.7v3.75Z"/><path id="Fill-136" class="cls-1" d="M298.38,313.59V310c0-.6-.26-1-.9-1a1.68,1.68,0,0,0-1.28.73v3.86H295V310c0-.6-.26-1-.91-1a1.66,1.66,0,0,0-1.27.75v3.84h-1.2v-5.51h1.2v.75a2.39,2.39,0,0,1,1.79-.89,1.43,1.43,0,0,1,1.5,1,2.35,2.35,0,0,1,1.87-1,1.46,1.46,0,0,1,1.59,1.67v4Z"/><path id="Fill-137" class="cls-1" d="M304.49,312.33v-.83a1.62,1.62,0,0,0-1.31-.57,1,1,0,1,0,0,2,1.59,1.59,0,0,0,1.31-.57Zm0,1.26V313a2.31,2.31,0,0,1-1.77.73,1.83,1.83,0,0,1-1.92-1.82,1.77,1.77,0,0,1,1.92-1.79,2.25,2.25,0,0,1,1.77.71V310c0-.64-.52-1-1.28-1a2.24,2.24,0,0,0-1.63.7l-.49-.84a3.27,3.27,0,0,1,2.31-.89c1.22,0,2.29.52,2.29,2v3.65Z"/><polygon id="Fill-138" class="cls-1" points="310.21 313.59 311.54 313.59 311.54 305.98 310.21 305.98 310.21 313.59"/><path id="Fill-139" class="cls-1" d="M316.84,313.59v-3.45c0-.85-.43-1.14-1.1-1.14a1.82,1.82,0,0,0-1.42.75v3.84h-1.19v-5.51h1.19v.75a2.64,2.64,0,0,1,1.94-.89,1.59,1.59,0,0,1,1.78,1.77v3.88Z"/><polygon id="Fill-140" class="cls-1" points="321.04 313.59 318.79 308.08 320.07 308.08 321.68 312.21 323.28 308.08 324.57 308.08 322.33 313.59 321.04 313.59"/><path id="Fill-141" class="cls-1" d="M329.41,310.83a1.61,1.61,0,1,0-1.6,1.83,1.66,1.66,0,0,0,1.6-1.83m-4.42,0a2.83,2.83,0,1,1,2.82,2.89,2.76,2.76,0,0,1-2.82-2.89"/><path id="Fill-142" class="cls-1" d="M331.86,313.59h1.2v-5.51h-1.2Zm-.15-6.92a.74.74,0,1,1,.74.74.74.74,0,0,1-.74-.74Z"/><path id="Fill-143" class="cls-1" d="M334.27,310.83a2.76,2.76,0,0,1,2.84-2.89,2.46,2.46,0,0,1,2.11,1l-.78.73a1.48,1.48,0,0,0-1.27-.65,1.84,1.84,0,0,0,0,3.66,1.48,1.48,0,0,0,1.27-.65l.78.73a2.44,2.44,0,0,1-2.11,1,2.76,2.76,0,0,1-2.84-2.89"/><path id="Fill-144" class="cls-1" d="M342.72,308.92a1.53,1.53,0,0,0-1.55,1.46h3.1a1.47,1.47,0,0,0-1.55-1.46m-2.79,1.91a2.78,2.78,0,0,1,2.79-2.89,2.73,2.73,0,0,1,2.72,3v.29h-4.25a1.66,1.66,0,0,0,1.75,1.51,2.29,2.29,0,0,0,1.56-.6l.55.79a3.23,3.23,0,0,1-2.23.79,2.77,2.77,0,0,1-2.89-2.89"/></g></g><path id="Fill-64" class="cls-6" d="M174.87,97.62a1.19,1.19,0,0,0-1.31-1.2h-2v2.39h2a1.19,1.19,0,0,0,1.31-1.19Zm-5.21,6V94.75h4.16a2.87,2.87,0,1,1,0,5.73h-2.27v3.15Z"/><path id="Fill-65" class="cls-6" d="M177.92,103.63V97.2h1.7v.88a2.76,2.76,0,0,1,2-1v1.65a2.61,2.61,0,0,0-.46,0,2.15,2.15,0,0,0-1.58.73v4.25Z"/><path id="Fill-66" class="cls-6" d="M185.63,98.39a1.54,1.54,0,0,0-1.58,1.42h3.16a1.48,1.48,0,0,0-1.58-1.42m-3.33,2A3.28,3.28,0,0,1,185.63,97a3.22,3.22,0,0,1,3.22,3.54V101h-4.78a1.74,1.74,0,0,0,1.85,1.49,2.73,2.73,0,0,0,1.72-.64l.74,1.09a4,4,0,0,1-2.64.89,3.26,3.26,0,0,1-3.44-3.38"/><path id="Fill-67" class="cls-6" d="M189.51,102.79l.73-1.18a3.7,3.7,0,0,0,2.23.88c.73,0,1.07-.3,1.07-.69,0-1.07-3.82-.2-3.82-2.73,0-1.08.95-2,2.64-2a4.1,4.1,0,0,1,2.6.88l-.68,1.16a2.74,2.74,0,0,0-1.91-.75c-.61,0-1,.28-1,.64,0,1,3.81.16,3.81,2.76,0,1.17-1,2.06-2.79,2.06a4.31,4.31,0,0,1-2.87-1"/><path id="Fill-68" class="cls-6" d="M199.33,98.39a1.54,1.54,0,0,0-1.58,1.42h3.16a1.48,1.48,0,0,0-1.58-1.42m-3.33,2A3.28,3.28,0,0,1,199.33,97a3.22,3.22,0,0,1,3.22,3.54V101h-4.78a1.74,1.74,0,0,0,1.85,1.49,2.73,2.73,0,0,0,1.72-.64l.75,1.09a4,4,0,0,1-2.65.89,3.26,3.26,0,0,1-3.44-3.38"/><path id="Fill-69" class="cls-6" d="M208.11,103.63V99.75c0-.9-.46-1.2-1.18-1.2a1.83,1.83,0,0,0-1.47.76v4.32h-1.69V97.2h1.69V98a3,3,0,0,1,2.25-1,1.87,1.87,0,0,1,2.09,2v4.54Z"/><path id="Fill-70" class="cls-6" d="M211.81,102V98.68h-1.07V97.2h1.07V95.44h1.7V97.2h1.3v1.48h-1.3v2.9c0,.4.21.71.58.71a.93.93,0,0,0,.59-.19l.36,1.28a2.05,2.05,0,0,1-1.41.41,1.6,1.6,0,0,1-1.82-1.75"/><path id="Fill-71" class="cls-6" d="M219.71,102V98.68h-1.07V97.2h1.07V95.44h1.7V97.2h1.31v1.48h-1.31v2.9c0,.4.22.71.59.71a.92.92,0,0,0,.58-.19l.36,1.28a2.05,2.05,0,0,1-1.41.41,1.6,1.6,0,0,1-1.82-1.75"/><path id="Fill-72" class="cls-6" d="M228.22,103.63V99.72c0-.89-.46-1.17-1.19-1.17a1.86,1.86,0,0,0-1.47.76v4.32h-1.69V94.75h1.69V98a3,3,0,0,1,2.27-1,1.85,1.85,0,0,1,2.08,2v4.56Z"/><path id="Fill-73" class="cls-6" d="M231.59,103.63h1.69V97.2h-1.69Zm-.18-8.13a1,1,0,1,1,1,1,1,1,0,0,1-1-1Z"/><path id="Fill-74" class="cls-6" d="M234.39,102.79l.74-1.18a3.65,3.65,0,0,0,2.22.88c.73,0,1.08-.3,1.08-.69,0-1.07-3.82-.2-3.82-2.73,0-1.08.94-2,2.63-2a4.1,4.1,0,0,1,2.6.88l-.68,1.16a2.74,2.74,0,0,0-1.91-.75c-.61,0-1,.28-1,.64,0,1,3.81.16,3.81,2.76,0,1.17-1,2.06-2.78,2.06a4.32,4.32,0,0,1-2.88-1"/><path id="Fill-75" class="cls-6" d="M249.88,102l-1-1.15,1.3-1.07,1,1.15a3.27,3.27,0,0,0,.45-1.7,2.7,2.7,0,1,0-2.7,2.91,3.12,3.12,0,0,0,.93-.14m-5.56-2.77a4.64,4.64,0,0,1,9.27,0,4.55,4.55,0,0,1-1.16,3.14l.66.76-1.32,1.08-.72-.83a5.09,5.09,0,0,1-2.1.44,4.45,4.45,0,0,1-4.63-4.59"/><path id="Fill-76" class="cls-6" d="M260.12,97.62a1.2,1.2,0,0,0-1.33-1.2h-2v2.39h2a1.2,1.2,0,0,0,1.33-1.19Zm-.18,6-1.75-3.15h-1.38v3.15h-1.89V94.75h4.15a2.76,2.76,0,0,1,3,2.87,2.54,2.54,0,0,1-1.94,2.63l2,3.38Z"/><path id="Fill-77" class="cls-6" d="M266.45,99.2a4.51,4.51,0,0,1,4.73-4.59,4.05,4.05,0,0,1,3.71,2.17l-1.62.8a2.43,2.43,0,0,0-2.09-1.3,2.92,2.92,0,0,0,0,5.83,2.38,2.38,0,0,0,2.09-1.29l1.62.79a4.1,4.1,0,0,1-3.71,2.18,4.51,4.51,0,0,1-4.73-4.59"/><path id="Fill-78" class="cls-6" d="M280.61,100.41a1.66,1.66,0,1,0-1.65,1.88,1.69,1.69,0,0,0,1.65-1.88m-5.05,0a3.41,3.41,0,1,1,3.4,3.38,3.26,3.26,0,0,1-3.4-3.38"/><path id="Fill-79" class="cls-6" d="M288,101.56V99.28a1.82,1.82,0,0,0-1.46-.73,1.89,1.89,0,0,0,0,3.74,1.85,1.85,0,0,0,1.46-.73Zm0,2.07v-.82a2.48,2.48,0,0,1-2,1c-1.62,0-2.85-1.22-2.85-3.37S284.41,97,286.05,97a2.47,2.47,0,0,1,2,1V94.75h1.7v8.88Z"/><path id="Fill-80" class="cls-6" d="M294.32,98.39a1.54,1.54,0,0,0-1.58,1.42h3.17a1.49,1.49,0,0,0-1.59-1.42m-3.33,2A3.28,3.28,0,0,1,294.32,97a3.22,3.22,0,0,1,3.22,3.54V101h-4.78a1.74,1.74,0,0,0,1.86,1.49,2.72,2.72,0,0,0,1.71-.64l.75,1.09a4,4,0,0,1-2.65.89,3.26,3.26,0,0,1-3.44-3.38"/><path id="Fill-81" class="cls-6" d="M302.5,102V98.68h-1.06V97.2h1.06V95.44h1.71V97.2h1.3v1.48h-1.3v2.9c0,.4.21.71.58.71a1,1,0,0,0,.59-.19l.36,1.28a2.1,2.1,0,0,1-1.42.41A1.6,1.6,0,0,1,302.5,102"/><path id="Fill-82" class="cls-6" d="M311.3,100.41a1.66,1.66,0,1,0-1.65,1.88,1.69,1.69,0,0,0,1.65-1.88m-5.05,0a3.4,3.4,0,1,1,3.4,3.38,3.26,3.26,0,0,1-3.4-3.38"/><path id="Fill-83" class="cls-6" d="M317.73,104.63a1.45,1.45,0,0,0,.54.11.85.85,0,0,0,.89-.47l.24-.54-2.61-6.53h1.81l1.68,4.48L322,97.2h1.83l-3,7.48a2.31,2.31,0,0,1-2.43,1.56,4.9,4.9,0,0,1-.84-.09Z"/><path id="Fill-84" class="cls-6" d="M329.16,100.41a1.66,1.66,0,1,0-1.65,1.88,1.69,1.69,0,0,0,1.65-1.88m-5,0a3.4,3.4,0,1,1,3.39,3.38,3.26,3.26,0,0,1-3.39-3.38"/><path id="Fill-85" class="cls-6" d="M336.51,103.63v-.81a3,3,0,0,1-2.27,1,1.83,1.83,0,0,1-2.07-2V97.2h1.69v3.9c0,.9.46,1.19,1.18,1.19a1.9,1.9,0,0,0,1.47-.74V97.2h1.68v6.43Z"/><path id="Fill-86" class="cls-6" d="M339.87,103.63V97.2h1.69v.88a2.77,2.77,0,0,1,2.05-1v1.65a2.84,2.84,0,0,0-.47,0,2.15,2.15,0,0,0-1.58.73v4.25Z"/><path id="Fill-87" class="cls-6" d="M347.65,100.41A3.26,3.26,0,0,1,351.06,97a3,3,0,0,1,2.54,1.16l-1.11,1a1.55,1.55,0,0,0-1.35-.69,1.87,1.87,0,0,0,0,3.74,1.62,1.62,0,0,0,1.35-.69l1.11,1a3,3,0,0,1-2.54,1.17,3.26,3.26,0,0,1-3.41-3.38"/><path id="Fill-88" class="cls-6" d="M359,103.63v-.81a3,3,0,0,1-2.26,1,1.84,1.84,0,0,1-2.08-2V97.2h1.69v3.9c0,.9.47,1.19,1.18,1.19a1.87,1.87,0,0,0,1.47-.74V97.2h1.69v6.43Z"/><path id="Fill-89" class="cls-6" d="M361.84,102.79l.73-1.18a3.7,3.7,0,0,0,2.23.88c.73,0,1.08-.3,1.08-.69,0-1.07-3.82-.2-3.82-2.73,0-1.08.94-2,2.63-2a4.1,4.1,0,0,1,2.6.88l-.68,1.16a2.73,2.73,0,0,0-1.9-.75c-.62,0-1,.28-1,.64,0,1,3.81.16,3.81,2.76,0,1.17-1,2.06-2.78,2.06a4.32,4.32,0,0,1-2.88-1"/><path id="Fill-90" class="cls-6" d="M369.08,102V98.68H368V97.2h1.06V95.44h1.7V97.2h1.31v1.48h-1.31v2.9c0,.4.22.71.59.71a1,1,0,0,0,.59-.19l.35,1.28a2.05,2.05,0,0,1-1.41.41,1.6,1.6,0,0,1-1.82-1.75"/><path id="Fill-91" class="cls-6" d="M377.88,100.41a1.66,1.66,0,1,0-1.65,1.88,1.69,1.69,0,0,0,1.65-1.88m-5.05,0a3.4,3.4,0,1,1,3.4,3.38,3.26,3.26,0,0,1-3.4-3.38"/><path id="Fill-92" class="cls-6" d="M388.85,103.63V99.57c0-.6-.26-1-1-1a1.72,1.72,0,0,0-1.33.74v4.34h-1.7V99.57c0-.6-.27-1-1-1a1.71,1.71,0,0,0-1.33.76v4.32h-1.69V97.2h1.69V98a2.84,2.84,0,0,1,2.1-1,1.71,1.71,0,0,1,1.79,1.17A2.73,2.73,0,0,1,388.67,97,1.72,1.72,0,0,1,390.56,99v4.64Z"/><path id="Fill-93" class="cls-6" d="M395.13,98.39a1.55,1.55,0,0,0-1.59,1.42h3.17a1.48,1.48,0,0,0-1.58-1.42m-3.33,2A3.28,3.28,0,0,1,395.13,97a3.23,3.23,0,0,1,3.22,3.54V101h-4.78a1.74,1.74,0,0,0,1.85,1.49,2.73,2.73,0,0,0,1.72-.64l.74,1.09a4,4,0,0,1-2.65.89,3.26,3.26,0,0,1-3.43-3.38"/><path id="Fill-94" class="cls-6" d="M399.57,103.63V97.2h1.69v.88a2.77,2.77,0,0,1,2.05-1v1.65a2.84,2.84,0,0,0-.47,0,2.15,2.15,0,0,0-1.58.73v4.25Z"/><g id="Group-22"><path id="Fill-145" class="cls-6" d="M284.57,275.83a2.7,2.7,0,1,0-2.7,2.91,2.69,2.69,0,0,0,2.7-2.91m-7.33,0a4.64,4.64,0,1,1,4.63,4.59,4.46,4.46,0,0,1-4.63-4.59"/><path id="Fill-146" class="cls-6" d="M293.05,274.24a1.21,1.21,0,0,0-1.33-1.2h-2v2.4h2a1.21,1.21,0,0,0,1.33-1.2Zm-.19,6-1.74-3.16h-1.39v3.16h-1.89v-8.88H292a2.77,2.77,0,0,1,3,2.86,2.56,2.56,0,0,1-2,2.64l2,3.38Z"/></g><g id="Group-37-2" data-name="Group-37"><g class="cls-25"><path id="Fill-1-2" data-name="Fill-1" class="cls-26" d="M285.65,212.4h4v-4h-4Zm20.61-4.12h4.08v-4.05h-4.08Zm16.44,4.13v-8.17h-4.11v4.09h-8.18v4.08Zm-8.15,16.52h12.29V216.62H314.55ZM269,245.49h-4c0-.53-.07-1.07-.08-1.6,0-.69,0-1.39,0-2.08,0-.37-.12-.48-.48-.47-1,0-2,0-3,0h-.65v-16.5h4.05V220.7h-4.08v-4.09H248.44v-8.27h-4.1v-4.12h4.07v4.11h1.46l2.67.07v4h4.12v-4h-4.14c0-1.4,0-2.8,0-4.19h4.14v-4.16H269v4.16h-8.17v12.29H269v-4.13h4.16v-8.22h8.29v-4.12h8.19V195.9h-4v-4.12h.75l3.41-.05c0,.87-.05,1.75-.07,2.62,0,.52,0,1,0,1.59h4.11v16.49H298v4.15h8.27v4.12h-4.13V229h4.11V233h4.09v-4h-4.11q0-4.14,0-8.3h4.09v-8.26h-8.26V200H298V195.9h4.05v-4.12H291.85l-2.06,0a4.93,4.93,0,0,1-.07-.66v-7.54h-4.08v-4.07a5,5,0,0,1,.54-.08c1,0,2,0,3,0,.42,0,.54-.14.53-.55,0-.78,0-1.56,0-2.34v-1.19h-4.06v4.17l-2.39-.09h-1.83v-4.09h-4.12v4.05h-4.16v-4.1H269v-4.13h8.31v-4.1h16.48v.72c0,3.68,0,7.36,0,11,0,.45.12.61.6.6,2.33,0,4.66,0,7,0l.63,0v4.13h-8.17v4.09h2.95l9.41,0h0V200h16.48v-4.11h4.15v4.16H331v4.17h-4.1v8.19H331v4.12h4.14v-4.12h4.11c0-.29,0-.53,0-.77,0-1.1,0-2.2,0-3.29h4.09v4h4.08v8.27h-8.18v4.16H331v8.31h0l-.28,0q-7.92,0-15.83,0a2.49,2.49,0,0,0-.42.06v4.05H302.08v4.1h0c-1.17,0-2.34.05-3.52,0-.45,0-.61.12-.6.59,0,1.16,0,2.31,0,3.5H285.62v-4.05h-8.25V237.2h7.56c.22,0,.44,0,.66-.07h0v4.18H298v-4.09h4.11v-4.08H298V220.74h-4.14v8.2h-8.2v-4.1h4v-4.12h4.1v-4.14h-8.18v-4.11h-4.13v4.11h-4.15v4.08h-4.19V216.5l2.62.07c.51,0,1,0,1.53,0v-4.1h-4.14v4.05l-2.73.06h-1.31v8.23h8.21V229h4.1v4.11h-8.23V229h-4.11v-4.11H265v8.22h4.06v4.1h4.08v4.16c-1.16,0-2.29,0-3.42,0-.52,0-.68.14-.66.66,0,1,0,1.94,0,2.91,0,.2-.06.4-.09.6Z"/></g><g class="cls-25"><path id="Fill-3-2" data-name="Fill-3" class="cls-26" d="M314.52,191.75h4v-4h-4Zm-8.29-16.45h8.23v-4.14h4.12v-8.24h20.64V167H331v4.14H318.63v4.13h8.18v4.1h-8.2v-4h-4.12v4.08H310.4v4.14h12.33v4.06h4.12v-4.07H331v-8.21h4.15v4c.29,0,.54,0,.79,0,1,0,1.91,0,2.86,0,.36,0,.49-.11.48-.48,0-1,0-2,0-3v-.64h4.11v4.06h-4.09v4.17H331v4.09h8.22v4.13h4.14v4.14h-4.09v-4.14H331v-4.07h-4.13v4.07h-4.12c0,.34,0,.6,0,.85,0,1.1,0,2.2-.05,3.29h-8.22v-4.16h-4.13v-4.09h-.82l-3.29,0h0V175.29Z"/></g><g class="cls-25"><path id="Fill-4-2" data-name="Fill-4" class="cls-26" d="M281.48,142.23V134h-4.11v-4.1h16.45v4H298v-4h16.5v8.18h-4.07v-4H302.1v4.07l-.69,0c-2.3,0-4.59,0-6.89,0-.59,0-.71.18-.7.73,0,2.3,0,4.59,0,6.89v.63H298v-4.07h12.4v4.1h4.1v4.12H302.13v4.11h4.1v4.2h-4.17v-4.14h-4.13V150.5H289.7v-4.14h-4.1v-4.15h4.12c0-1.29,0-2.54,0-3.78,0-.11-.25-.29-.39-.3-.71,0-1.42,0-2.13,0h-1.56v4.11h-4.14"/></g><g class="cls-25"><path id="Fill-5-2" data-name="Fill-5" class="cls-26" d="M339.28,224.84h8.19v8.26h-8.18v4.08h4.08v8.25h-4a3.35,3.35,0,0,1-.08-.54c0-1,0-2,0-3,0-.48-.16-.6-.61-.58-.84,0-1.67,0-2.51,0h-1v4.07h4.16c0,.53-.07,1.07-.08,1.6,0,.84,0,1.68,0,2.55H326.87v-8.18l-.57,0c-2.37,0-4.75,0-7.12,0-.46,0-.6.13-.59.6,0,2.32,0,4.63,0,6.95v.68h-4.11V245.5h-4.1v4.06h-4.16v-4.07h-4.14v-4.18h0l.33,0h15.73c.14,0,.28,0,.48-.05v-4.12H331v-4h4.15V229h4.1c0-.31,0-.55,0-.79,0-1.11,0-2.23,0-3.35Z"/></g><g class="cls-25"><path id="Fill-6" class="cls-26" d="M232,245.43h20.58V224.87H232Zm-4.13,4.13h28.84V220.74H227.82Z"/></g><g class="cls-25"><path id="Fill-7-3" data-name="Fill-7" class="cls-26" d="M343.31,154.63V134l-.6,0c-6.43,0-12.87,0-19.31,0-.56,0-.67.18-.67.7q0,9.63,0,19.27c0,.56.15.71.71.71,6.4,0,12.81,0,19.21,0Zm-24.7,4.16V129.91h28.9v.67q0,13.75,0,27.5c0,.56-.13.72-.71.72q-13.77,0-27.55,0Z"/></g><g class="cls-25"><path id="Fill-8" class="cls-26" d="M232,154.59h20.58V134H232Zm-4.12,4.17h28.83V129.91H227.84Z"/></g><g class="cls-25"><path id="Fill-9-2" data-name="Fill-9" class="cls-26" d="M252.57,175.3v-4.13h4.13c0-1,0-1.92,0-2.84,0-.46,0-.92.06-1.38h0c.13,0,.25,0,.38,0h11.49l.41,0v-4.08h-8.18V138.15h4.09v20.57h4.12V138.14h4.09v4.09h8.31v8.26h-4.14v-4h-4.14V167h-4.11v.79c0,1.12,0,2.23-.05,3.35h-4v4.15h-12.4Z"/></g><g class="cls-25"><path id="Fill-10-3" data-name="Fill-10" class="cls-26" d="M248.42,204.22V196h-4.1v4.09h-4.11v4.13h-4.12v-4.11h4v-8.28h-12.3v-8.2H236v4h8.26v4.11h4.08v-8.18h-4v-4.12h4.06v4.11h.86l3.3,0,0,0v4h4.16v0c0,1.39,0,2.78,0,4.17h-4.11v4.13h4.11c0,1.39,0,2.77,0,4.16h-4.15v4.16h-4.13Z"/></g><g class="cls-25"><path id="Fill-11" class="cls-26" d="M240.25,171.12h4V167h-4ZM256.76,167a6,6,0,0,1-.61.05h-7.71v4.14h-4.12v4.12H232v4.1h-4.1V162.91h4.07V167h4.13v-4.05h20.7v4Z"/></g><g class="cls-25"><polygon id="Fill-12-2" data-name="Fill-12" class="cls-26" points="248.42 179.45 248.42 175.3 252.57 175.3 252.55 175.29 252.55 179.41 265 179.41 265 183.6 265.01 183.59 260.8 183.59 260.8 187.62 256.7 187.62 256.71 187.63 256.71 183.58 252.55 183.58 252.56 183.6 252.56 179.44 248.41 179.44 248.42 179.45"/></g><g class="cls-25"><polygon id="Fill-13-2" data-name="Fill-13" class="cls-26" points="227.83 216.53 231.9 216.53 231.9 195.94 227.83 195.94 227.83 216.53"/></g><g class="cls-25"><path id="Fill-14-2" data-name="Fill-14" class="cls-26" d="M306.23,158.83l3.29-.05h.84v-4.11h4.09v8.22h-4.07v8.25h-4.14V158.83Z"/></g><g class="cls-25"><path id="Fill-15-3" data-name="Fill-15" class="cls-26" d="M339.28,195.91c0,1.53,0,3.05,0,4.58,0,2.63,0,5.25,0,7.88h-4.16v-8.3H331c0-1.39,0-2.77,0-4.16h8.29Z"/></g><g class="cls-25"><polygon id="Fill-16-2" data-name="Fill-16" class="cls-26" points="240.19 212.43 244.27 212.43 244.27 216.54 236.09 216.54 236.09 208.37 240.19 208.37 240.19 212.43"/></g><g class="cls-25"><polygon id="Fill-17-2" data-name="Fill-17" class="cls-26" points="306.23 171.14 306.23 175.3 306.24 175.29 302.13 175.29 302.13 171.15 306.24 171.15 306.23 171.14"/></g><g class="cls-25"><polygon id="Fill-18-3" data-name="Fill-18" class="cls-26" points="343.4 171.13 347.45 171.13 347.45 167.04 343.4 167.04 343.4 171.13"/></g><g class="cls-25"><path id="Fill-19-2" data-name="Fill-19" class="cls-26" d="M265,245.49l-.06,3c0,.35,0,.7,0,1.07h-4.11V245.5H265"/></g><g class="cls-25"><polygon id="Fill-20-2" data-name="Fill-20" class="cls-26" points="343.38 204.17 347.47 204.17 347.47 200.09 343.38 200.09 343.38 204.17"/></g><g class="cls-25"><path id="Fill-21-4" data-name="Fill-21" class="cls-26" d="M269,245.51h4.17v4.05H269v-4.07l0,0"/></g><g class="cls-25"><polygon id="Fill-22-2" data-name="Fill-22" class="cls-26" points="277.38 249.59 281.42 249.59 281.42 245.5 277.38 245.5 277.38 249.59"/></g><g class="cls-25"><path id="Fill-23-3" data-name="Fill-23" class="cls-26" d="M343.37,187.66V183.6h4.13c0,1.27,0,2.53,0,3.79,0,.09-.18.25-.27.26h-3.85"/></g><g class="cls-25"><path id="Fill-24-2" data-name="Fill-24" class="cls-26" d="M285.59,237.13v-4h4.1v4.07h-3.24c-.29,0-.58,0-.88-.08h0"/></g><g class="cls-25"><path id="Fill-25-2" data-name="Fill-25" class="cls-26" d="M265,183.6a2.6,2.6,0,0,1,.39,0h11.48l.45,0v8.16h4.11v4.15H265v-4.11h8.15v-4.12H265v-4.07h0"/></g><g class="cls-25"><path id="Fill-26" class="cls-26" d="M256.7,195.93v-4.17h4.09v4.17Z"/></g><g class="cls-25"><path id="Fill-27-3" data-name="Fill-27" class="cls-26" d="M269,212.39h-4v-4h4v4h0"/></g><g class="cls-25"><path id="Fill-28" class="cls-26" d="M297.94,162.84h-4.09v-8.16h4.08c0,.7.05,1.41.05,2.11,0,2,0,4.05-.05,6.07Z"/></g><g class="cls-25"><path id="Fill-29-2" data-name="Fill-29" class="cls-26" d="M285.64,154.63c1.29,0,2.54,0,3.78,0,.11,0,.3.19.3.29,0,2.61,0,5.23,0,7.84l-.06.08h-4Z"/></g><g class="cls-25"><path id="Fill-30-2" data-name="Fill-30" class="cls-26" d="M297.93,162.85h4.12V167h-4.11v-4.13h0"/></g><g class="cls-25"><polygon id="Fill-31" class="cls-26" points="277.36 158.75 281.43 158.75 281.43 154.67 277.36 154.67 277.36 158.75"/></g><g class="cls-25"><polygon id="Fill-32-2" data-name="Fill-32" class="cls-26" points="318.62 224.8 322.71 224.8 322.71 220.73 318.62 220.73 318.62 224.8"/></g><g class="cls-25"><path id="Fill-33" class="cls-26" d="M326.84,191.76H331v4.17h-4.16Z"/></g><g class="cls-25"><polygon id="Fill-34" class="cls-26" points="236.1 241.3 248.4 241.3 248.4 229.01 236.1 229.01 236.1 241.3"/></g><g class="cls-25"><polygon id="Fill-35" class="cls-26" points="326.89 150.49 339.22 150.49 339.22 138.15 326.89 138.15 326.89 150.49"/></g><g class="cls-25"><polygon id="Fill-36" class="cls-26" points="236.09 150.49 248.38 150.49 248.38 138.15 236.09 138.15 236.09 150.49"/></g></g><path id="Fill-169" class="cls-1" d="M155.56,56l.85-1.17a3.66,3.66,0,0,0,2.7,1.19c1.23,0,1.71-.6,1.71-1.17,0-1.8-5-.69-5-3.83,0-1.42,1.23-2.51,3.12-2.51a4.42,4.42,0,0,1,3.19,1.21l-.85,1.11a3.48,3.48,0,0,0-2.48-1c-.87,0-1.44.44-1.44,1.07,0,1.6,5,.61,5,3.79,0,1.43-1,2.66-3.3,2.66A4.7,4.7,0,0,1,155.56,56"/><path id="Fill-170" class="cls-1" d="M167.88,57.23V53.36c0-1-.5-1.28-1.26-1.28a2.11,2.11,0,0,0-1.59.82v4.33h-1.34V51H165v.83a3,3,0,0,1,2.2-1,1.78,1.78,0,0,1,2,2v4.36Z"/><path id="Fill-171" class="cls-1" d="M174.76,57.23v-.68a2.6,2.6,0,0,1-2,.84,2.06,2.06,0,0,1-2.14-2,2,2,0,0,1,2.14-2,2.56,2.56,0,0,1,2,.8v-.93c0-.72-.6-1.15-1.45-1.15a2.51,2.51,0,0,0-1.83.79l-.56-.93a3.63,3.63,0,0,1,2.6-1c1.38,0,2.59.58,2.59,2.23v4.11Zm0-1.41v-1a1.84,1.84,0,0,0-1.47-.64A1.19,1.19,0,0,0,172,55.35a1.18,1.18,0,0,0,1.33,1.11,1.81,1.81,0,0,0,1.47-.64Z"/><path id="Fill-172" class="cls-1" d="M179.2,56.38v3.21h-1.35V51h1.35v.85a2.45,2.45,0,0,1,2-1c1.61,0,2.75,1.2,2.75,3.24s-1.14,3.26-2.75,3.26a2.48,2.48,0,0,1-2-1m3.34-2.25a1.82,1.82,0,0,0-1.75-2.05,2,2,0,0,0-1.59.82v2.45a2,2,0,0,0,1.59.85,1.83,1.83,0,0,0,1.75-2.07"/><path id="Fill-173" class="cls-1" d="M184.76,56l.85-1.17a3.65,3.65,0,0,0,2.7,1.19c1.23,0,1.71-.6,1.71-1.17,0-1.8-5-.69-5-3.83,0-1.42,1.23-2.51,3.12-2.51a4.42,4.42,0,0,1,3.19,1.21l-.85,1.11a3.48,3.48,0,0,0-2.48-1c-.87,0-1.44.44-1.44,1.07,0,1.6,5,.61,5,3.79,0,1.43-1,2.66-3.3,2.66A4.7,4.7,0,0,1,184.76,56"/><path id="Fill-174" class="cls-1" d="M192.52,54.13a3.1,3.1,0,0,1,3.19-3.24,2.76,2.76,0,0,1,2.37,1.1l-.89.81a1.63,1.63,0,0,0-1.42-.72,2.07,2.07,0,0,0,0,4.12,1.65,1.65,0,0,0,1.42-.75l.89.84a2.81,2.81,0,0,1-2.37,1.1,3.12,3.12,0,0,1-3.19-3.26"/><path id="Fill-175" class="cls-1" d="M203.07,57.23v-.68a2.64,2.64,0,0,1-2,.84,2.06,2.06,0,0,1-2.14-2,2,2,0,0,1,2.14-2,2.6,2.6,0,0,1,2,.8v-.93c0-.72-.61-1.15-1.45-1.15a2.53,2.53,0,0,0-1.84.79l-.56-.93a3.63,3.63,0,0,1,2.6-1c1.39,0,2.59.58,2.59,2.23v4.11Zm0-1.41v-1a1.88,1.88,0,0,0-1.48-.64,1.19,1.19,0,0,0-1.33,1.12,1.18,1.18,0,0,0,1.33,1.11,1.85,1.85,0,0,0,1.48-.64Z"/><path id="Fill-176" class="cls-1" d="M210.35,57.23V53.36c0-1-.5-1.28-1.26-1.28a2.11,2.11,0,0,0-1.59.82v4.33h-1.34V51h1.34v.83a3,3,0,0,1,2.19-1,1.78,1.78,0,0,1,2,2v4.36Z"/><path id="Fill-177" class="cls-1" d="M142.37,45.28a8,8,0,1,0,8,8,8,8,0,0,0-8-8m0,15.39a7.43,7.43,0,1,1,7.42-7.43,7.43,7.43,0,0,1-7.42,7.43"/><path id="Fill-178" class="cls-1" d="M141.31,49.81h-1.85a.53.53,0,0,0-.53.53v1.85a.53.53,0,0,0,.53.53h1.85a.53.53,0,0,0,.53-.53V50.34a.53.53,0,0,0-.53-.53"/><path id="Fill-179" class="cls-1" d="M145.28,49.81h-1.85a.52.52,0,0,0-.53.53v1.85a.53.53,0,0,0,.53.53h1.85a.53.53,0,0,0,.53-.53V50.34a.53.53,0,0,0-.53-.53"/><path id="Fill-180" class="cls-1" d="M141.31,53.77h-1.85a.53.53,0,0,0-.53.53v1.85a.53.53,0,0,0,.53.53h1.85a.53.53,0,0,0,.53-.53V54.3a.53.53,0,0,0-.53-.53"/></g></g><g id="Group-3"><g class="cls-27"><path id="Fill-1-3" data-name="Fill-1" class="cls-28" d="M512.61,458.15c0,1.83-23.61,3.32-52.73,3.32s-52.73-1.49-52.73-3.32,23.61-3.33,52.73-3.33,52.73,1.49,52.73,3.33"/></g></g><g id="Group-75"><path id="Fill-1-4" data-name="Fill-1" class="cls-29" d="M433.92,434.64c.71,3.08,1,4.3,1.41,6.07a3.42,3.42,0,0,1-1.69,4.18l-.76,6.71,9.29.13,3.37-5.79v-11.3Z"/><path id="Fill-3-3" data-name="Fill-3" class="cls-30" d="M444.48,318.26H418.67c0,16.4,1.8,36.05,4.11,54.5,1.77,12.93,6.21,43,8.11,55.87a10.72,10.72,0,0,0,3,6h11.62a13.49,13.49,0,0,0,1.58-6.68Z"/><polygon id="Fill-5-3" data-name="Fill-5" class="cls-26" points="446.48 401.23 445.55 362.9 430.97 340.58 446.48 401.23"/><path id="Fill-7-4" data-name="Fill-7" class="cls-30" d="M420.33,259.19l-1.66,59.07,24.87,4.83S462,293.44,462,264.72l-.1-5.53Z"/><g id="Group-11"><g class="cls-31"><path id="Fill-9-3" data-name="Fill-9" class="cls-32" d="M473.49,451.18a6.42,6.42,0,0,1,1-.29l7.26-1.57a19,19,0,0,0,3.05-.88,19.38,19.38,0,0,0,2.94-3.81,5.82,5.82,0,0,0,.78-2.57h0l3.18.66a6.59,6.59,0,0,0,6.75-2.72l1.69-2.47A116.33,116.33,0,0,0,505.87,448l-9.41,4.76-9.77,4.94H470.12a5.67,5.67,0,0,1,3.37-6.49"/></g></g><path id="Fill-12-3" data-name="Fill-12" class="cls-29" d="M487.7,438.6l10.44-5.31c.72,1.6,1.33,2.87,2,4.24L498.46,440a6.58,6.58,0,0,1-6.75,2.72l-3.18-.66h0a5.91,5.91,0,0,0-.82-3.46"/><path id="Fill-14-3" data-name="Fill-14" class="cls-30" d="M455.83,325.81s7.39-37.13,7.39-52.44a77.63,77.63,0,0,0-1.34-14.18H421l4,71.13,55.13,99.81a9.47,9.47,0,0,0,5.15,4.35l11.2-5.32.18-.69a9.48,9.48,0,0,0-.44-6Z"/><polygon id="Fill-16-3" data-name="Fill-16" class="cls-30" points="485.31 434.48 487.7 438.6 498.14 433.29 496.51 429.16 485.31 434.48"/><path id="Fill-18-4" data-name="Fill-18" class="cls-30" d="M418.67,318.26a12.91,12.91,0,1,0,12.9-12.91,12.91,12.91,0,0,0-12.9,12.91"/><path id="Fill-20-3" data-name="Fill-20" class="cls-32" d="M413.51,457.67l.38-2.2a6.08,6.08,0,0,1,4.77-4.82l5.93-1.57a28.56,28.56,0,0,0,9.05-4.19l1.2,1a8.15,8.15,0,0,0,9,.83l1.7-.92.31,11.9Z"/><path id="Fill-22-3" data-name="Fill-22" class="cls-33" d="M463.22,264.14h0a16.63,16.63,0,0,0,4.87-11.76V222.74A73.26,73.26,0,0,0,456,182.42L438.39,189c-5.29,6.65-9.59,14.75-11.2,23.09l-10.92,58.18h42.24Z"/><polygon id="Fill-24-3" data-name="Fill-24" class="cls-26" points="425.3 221.91 422.04 239.56 449.37 217.66 425.3 221.91"/><polygon id="Fill-26-2" data-name="Fill-26" class="cls-34" points="438.39 189.04 440.08 195.67 456 182.42 438.39 189.04"/><path id="Fill-28-2" data-name="Fill-28" class="cls-26" d="M440.08,195.67,438.39,189c-.66.83-1.3,1.68-1.93,2.55Z"/><path id="Fill-30-3" data-name="Fill-30" class="cls-35" d="M362.84,176a3.57,3.57,0,0,0-1.27,1.24l2.38-.31Z"/><path id="Fill-32-3" data-name="Fill-32" class="cls-35" d="M362.1,179.05a3.66,3.66,0,0,0-1.27,1.24l2.39-.31Z"/><polygon id="Fill-34-2" data-name="Fill-34" class="cls-26" points="367.8 175.58 365.33 175.86 363.62 160.71 366.08 160.43 367.8 175.58"/><path id="Fill-36-2" data-name="Fill-36" class="cls-29" d="M376.6,187.75l-.93-7.54a3.29,3.29,0,0,0-.77-1.73l-2-2.35A3.23,3.23,0,0,0,370,175l-2.63.35-1.58-1.31-1-.86a1.47,1.47,0,0,0-2.37.79,2.42,2.42,0,0,0,.74,2.23l.83.7a1.58,1.58,0,1,0-2.06,2.4l.89.74a1.32,1.32,0,1,0-1.72,2l.62.51-.09.39a3.89,3.89,0,0,0,1.07,3.7l1.8,1.74,5.73,5.57Z"/><path id="Fill-38" class="cls-35" d="M361.68,182.59l-.09.38a4,4,0,0,0-.1.83l2.35.57Z"/><polygon id="Fill-40" class="cls-36" points="376.6 187.75 370.19 193.99 392.79 215.46 400.77 206.04 376.6 187.75"/><path id="Fill-42" class="cls-33" d="M414.52,226l34.85-8.31,2.14-25.09-44.31,16-23.12-17.39a8.26,8.26,0,0,0-3.67-1.55l-1.73-.27-6.46,6.58a8.2,8.2,0,0,0,2.43,5.22c5.53,5.43,20,19.43,25.4,22.85,4.44,2.78,8.38,3.12,13.53,2.2l.94-.2"/><polygon id="Fill-44" class="cls-26" points="369.31 175.13 367.37 175.39 371.39 178.72 369.31 175.13"/><path id="Fill-46" class="cls-29" d="M466.67,152.7A15.67,15.67,0,0,0,451,141.16a27,27,0,0,0-6.59,1,6.54,6.54,0,0,0-4.35,3.91l-4,11.34-3.61,5.22a1.13,1.13,0,0,0,.38,1.62l1.56.88s.2,12.33,3,12.74a9.92,9.92,0,0,0,2.72-.1,2.21,2.21,0,0,1,2.3,3.15l-4,8.14,18.15-5.78,1.66-6.75c1.41-3.08,6.76-11.74,6.76-11.74a16,16,0,0,0,1.71-12.07"/><path id="Fill-48-2" data-name="Fill-48" class="cls-37" d="M467.76,151.58a18.25,18.25,0,0,0-11.53-9.7l.41,7.3-8.4-1.25L447,151.47a2,2,0,0,0,.95,2.49c1.34.72,2.37,1.53,2.14,3.08-.4,2.72,1.08,6.2,1.08,6.2l1.46-4.73a2.44,2.44,0,0,1,4.6,1.56c-.26,1.7-.67,4.49-.88,5.93-.86,5.75,1.06,8.44,1.9,10.51l9-15.18a10.21,10.21,0,0,0,.53-9.75"/><path id="Fill-50" class="cls-26" d="M442.14,181.45c3.81-2.75,5.29-5.34,7.28-8.8a18.08,18.08,0,0,1-9.31,5.1,2.21,2.21,0,0,1,2.3,3.15Z"/><g id="Group-54"><g class="cls-38"><path id="Fill-52" class="cls-26" d="M468.62,154.39a10.14,10.14,0,0,0-.86-2.81,18.25,18.25,0,0,0-11.53-9.7,16.52,16.52,0,0,0-5.22-.73,38,38,0,0,0-6.87.85,5.35,5.35,0,0,0-4.07,4.05l26.86,7.84Z"/></g></g><polygon id="Fill-55" class="cls-34" points="463.22 264.14 417.42 264.14 416.27 270.31 463.16 270.31 463.22 264.14"/><path id="Fill-57" class="cls-26" d="M446.41,270.31c-10.33,0-26.58,6.82-26.58,6.82l.19-6.82Z"/><polygon id="Fill-59" class="cls-34" points="376.6 187.75 370.19 193.99 372.22 195.91 378.68 189.33 376.6 187.75"/><path id="Stroke-61" class="cls-39" d="M426,243.54a15.44,15.44,0,0,0,14.16,10.55"/><path id="Stroke-63" class="cls-39" d="M452.48,215.88c3.52,22.67-.05,34.89-3.32,51.09"/><path id="Stroke-65" class="cls-39" d="M440.08,195.67,456,187.11"/><polygon id="Fill-67-2" data-name="Fill-67" class="cls-30" points="434.84 438.6 445.54 438.6 445.54 434.64 433.92 434.64 434.84 438.6"/><path id="Fill-69-2" data-name="Fill-69" class="cls-26" d="M439.6,157.55a1,1,0,0,0,.65,1.29c.47.08.94-.37,1-1a1,1,0,0,0-.65-1.29c-.46-.08-.93.37-1,1"/><path id="Stroke-71" class="cls-40" d="M439,154.77a5.73,5.73,0,0,1,4.68,1.66"/><path id="Fill-73-2" data-name="Fill-73" class="cls-1" d="M434.72,170.25,439,169s-2.05-.23-4.43-.58c0,.58.1,1.2.16,1.83"/></g></g></g></g></g></g></g></svg>